<?xml version="1.0" standalone="no"?>
<!DOCTYPE svg PUBLIC "-//W3C//DTD SVG 20010904//EN"
 "http://www.w3.org/TR/2001/REC-SVG-20010904/DTD/svg10.dtd">
<svg version="1.0" xmlns="http://www.w3.org/2000/svg"
 width="450.000000pt" height="450.000000pt" viewBox="0 0 450.000000 450.000000"
 preserveAspectRatio="xMidYMid meet">
<metadata>
Created by potrace 1.14, written by Peter Selinger 2001-2017
</metadata>
<g transform="translate(0.000000,450.000000) scale(0.100000,-0.100000)"
fill="#000000" stroke="none">
<path d="M1994 4161 c-107 -66 -27 -249 133 -307 132 -47 220 39 167 164 -22
54 -71 100 -139 133 -70 34 -118 37 -161 10z"/>
<path d="M1366 4100 c-54 -17 -96 -73 -96 -127 0 -49 44 -126 103 -180 93 -85
224 -116 312 -73 138 67 75 264 -113 353 -67 31 -156 43 -206 27z"/>
<path d="M2562 4017 c-23 -25 -28 -69 -13 -110 16 -40 73 -99 116 -118 54 -25
89 -24 122 5 81 70 -31 246 -157 246 -36 0 -52 -5 -68 -23z"/>
<path d="M3047 3792 c-24 -26 -21 -70 6 -115 30 -49 73 -77 119 -77 42 0 68
27 68 70 0 34 -39 97 -76 120 -37 25 -96 26 -117 2z"/>
<path d="M729 3773 c-133 -68 -131 -216 4 -340 116 -106 266 -147 393 -108
151 47 179 201 59 333 -114 127 -326 180 -456 115z"/>
<path d="M3423 3525 c-46 -32 -14 -123 52 -151 43 -17 72 -6 81 31 18 73 -78
159 -133 120z"/>
<path d="M3692 3218 c-28 -28 2 -104 45 -114 59 -15 82 42 38 95 -28 32 -62
40 -83 19z"/>
<path d="M383 3140 c-52 -12 -122 -59 -148 -98 -134 -204 174 -466 475 -401
61 13 136 62 167 108 31 45 32 137 3 197 -39 80 -148 161 -255 188 -61 17
-186 20 -242 6z"/>
<path d="M1563 2761 c-40 -10 -112 -52 -140 -83 -12 -13 -32 -46 -45 -73 -22
-48 -23 -61 -23 -280 0 -221 1 -232 23 -277 31 -63 102 -124 165 -143 75 -22
621 -22 696 1 61 18 131 77 164 139 21 38 22 53 22 285 0 215 -2 249 -18 277
-30 55 -78 103 -131 131 l-51 27 -315 2 c-173 1 -329 -2 -347 -6z m648 -220
c17 -21 19 -41 19 -213 0 -187 0 -189 -25 -213 l-24 -25 -291 0 -291 0 -24 25
c-25 24 -25 26 -25 204 0 191 6 226 42 241 13 5 151 8 311 7 l289 -2 19 -24z"/>
<path d="M2850 2330 l0 -440 100 0 100 0 2 338 3 337 316 3 c300 2 318 1 340
-17 20 -16 24 -28 24 -74 0 -40 -5 -61 -19 -76 -18 -20 -29 -21 -286 -23
l-267 -3 214 -242 214 -243 135 0 135 0 -18 23 c-10 13 -63 74 -118 136 -55
61 -101 116 -103 122 -2 5 24 9 60 9 80 0 133 24 181 80 134 157 70 454 -108
499 -29 7 -193 11 -474 11 l-431 0 0 -440z"/>
<path d="M445 2316 c-110 -27 -207 -101 -242 -183 -36 -88 -9 -195 70 -273 85
-86 205 -125 358 -118 80 3 104 9 163 36 118 55 180 139 179 243 -2 203 -278
357 -528 295z"/>
<path d="M2576 2069 c-76 -60 -32 -179 66 -179 56 0 98 43 98 100 0 84 -97
132 -164 79z"/>
<path d="M4001 2074 c-30 -21 -51 -71 -44 -107 3 -15 19 -38 35 -52 68 -58
168 -13 168 75 0 81 -93 130 -159 84z"/>
<path d="M985 1534 c-116 -18 -230 -85 -291 -169 -42 -60 -56 -103 -56 -175 0
-237 315 -374 577 -252 283 133 284 465 1 571 -54 20 -175 33 -231 25z"/>
<path d="M3848 1291 c-19 -9 -41 -32 -51 -54 -57 -116 79 -247 163 -157 50 54
47 141 -7 192 -37 34 -65 39 -105 19z"/>
<path d="M3404 1008 c-188 -126 -123 -442 91 -442 127 0 227 127 212 270 -17
170 -174 258 -303 172z"/>
<path d="M1800 977 c-173 -49 -288 -178 -298 -333 -6 -98 16 -163 78 -224 170
-171 498 -91 608 148 68 149 -1 326 -155 394 -56 25 -172 32 -233 15z"/>
<path d="M2744 851 c-101 -25 -207 -119 -243 -216 -26 -69 -28 -172 -4 -240
37 -109 159 -184 280 -172 118 12 240 108 282 222 30 79 28 184 -3 250 -55
119 -188 185 -312 156z"/>
</g>
</svg>
