<svg width="100" height="100" viewBox="0 0 100 100" fill="none" xmlns="http://www.w3.org/2000/svg">
<g clip-path="url(#clip0_88_719)">
<path d="M63.7734 12.5781V5.46875C63.7734 4.22555 64.2673 3.03326 65.1464 2.15419C66.0255 1.27511 67.2177 0.78125 68.4609 0.78125H5.46875C4.22555 0.78125 3.03326 1.27511 2.15419 2.15419C1.27511 3.03326 0.78125 4.22555 0.78125 5.46875V12.5781H63.7734Z" fill="#DCDCD2"/>
<path d="M5.11011 0.799219C5.22886 0.790625 5.34761 0.78125 5.4687 0.78125H5.11011V0.799219Z" fill="#F0F0E6"/>
<path d="M73.1484 0.78125H5.46875C6.71195 0.78125 7.90424 1.27511 8.78331 2.15419C9.66239 3.03326 10.1562 4.22555 10.1562 5.46875C10.1562 5.58984 10.1469 5.70859 10.1383 5.82734H10.1562V94.5312C10.1562 95.7745 10.6501 96.9667 11.5292 97.8458C12.4083 98.7249 13.6005 99.2188 14.8438 99.2188H73.1484C74.3916 99.2188 75.5839 98.7249 76.463 97.8458C77.3421 96.9667 77.8359 95.7745 77.8359 94.5312V5.46875C77.8359 4.22555 77.3421 3.03326 76.463 2.15419C75.5839 1.27511 74.3916 0.78125 73.1484 0.78125Z" fill="#FFFFFA"/>
<path d="M77.8359 61.2141C75.5083 62.3121 72.9409 62.8042 70.3722 62.6444C67.8035 62.4847 65.3169 61.6784 63.1432 60.3004C60.9696 58.9224 59.1794 57.0175 57.939 54.7625C56.6986 52.5075 56.0482 49.9756 56.0482 47.402C56.0482 44.8283 56.6986 42.2965 57.939 40.0415C59.1794 37.7865 60.9696 35.8815 63.1432 34.5036C65.3169 33.1256 67.8035 32.3193 70.3722 32.1595C72.9409 31.9998 75.5083 32.4918 77.8359 33.5899V28.9914C74.8928 27.9556 71.7443 27.6404 68.6543 28.0723C65.5643 28.5042 62.6229 29.6707 60.0767 31.4738C57.5304 33.277 55.4536 35.6643 54.0203 38.4356C52.587 41.207 51.839 44.2815 51.839 47.4016C51.839 50.5216 52.587 53.5962 54.0203 56.3675C55.4536 59.1389 57.5304 61.5262 60.0767 63.3293C62.6229 65.1325 65.5643 66.2989 68.6543 66.7309C71.7443 67.1628 74.8928 66.8476 77.8359 65.8117V61.2141Z" fill="#F0F0E6"/>
<path d="M17.0781 13.2063H69.8336V18.9696H17.0781V13.2063Z" fill="#FFE885"/>
<path d="M19.5312 87.4219V94.5312C19.5312 95.7745 19.0374 96.9667 18.1583 97.8458C17.2792 98.7249 16.087 99.2187 14.8438 99.2187H77.8359C79.0791 99.2187 80.2714 98.7249 81.1505 97.8458C82.0296 96.9667 82.5234 95.7745 82.5234 94.5312V87.4219H19.5312Z" fill="#F0F0E6"/>
<path d="M23.4727 31.9164H20.2031C18.4772 31.9164 17.0781 33.3155 17.0781 35.0414V38.3109C17.0781 40.0368 18.4772 41.4359 20.2031 41.4359H23.4727C25.1985 41.4359 26.5977 40.0368 26.5977 38.3109V35.0414C26.5977 33.3155 25.1985 31.9164 23.4727 31.9164Z" fill="#D4F4DD"/>
<path d="M23.4727 50.6266H20.2031C18.4772 50.6266 17.0781 52.0257 17.0781 53.7516V57.0211C17.0781 58.747 18.4772 60.1461 20.2031 60.1461H23.4727C25.1985 60.1461 26.5977 58.747 26.5977 57.0211V53.7516C26.5977 52.0257 25.1985 50.6266 23.4727 50.6266Z" fill="#D4F4DD"/>
<path d="M23.4727 31.9164H20.2031C19.3743 31.9164 18.5795 32.2456 17.9934 32.8317C17.4074 33.4177 17.0781 34.2126 17.0781 35.0414V37.5C17.0781 36.6712 17.4074 35.8763 17.9934 35.2903C18.5795 34.7042 19.3743 34.375 20.2031 34.375H23.4727C24.3015 34.375 25.0963 34.7042 25.6824 35.2903C26.2684 35.8763 26.5977 36.6712 26.5977 37.5V35.0414C26.5977 34.2126 26.2684 33.4177 25.6824 32.8317C25.0963 32.2456 24.3015 31.9164 23.4727 31.9164Z" fill="#BFDBC7"/>
<path d="M23.4727 50.625H20.2031C19.3743 50.625 18.5795 50.9542 17.9934 51.5403C17.4074 52.1263 17.0781 52.9212 17.0781 53.75V56.2102C17.0781 55.3814 17.4074 54.5865 17.9934 54.0004C18.5795 53.4144 19.3743 53.0852 20.2031 53.0852H23.4727C24.3015 53.0852 25.0963 53.4144 25.6824 54.0004C26.2684 54.5865 26.5977 55.3814 26.5977 56.2102V53.75C26.5977 52.9212 26.2684 52.1263 25.6824 51.5403C25.0963 50.9542 24.3015 50.625 23.4727 50.625Z" fill="#BFDBC7"/>
<path d="M31.1492 31.9164H69.8335V36.0554H31.1492V31.9164Z" fill="#FFE885"/>
<path d="M31.1492 50.6266H69.8335V54.7656H31.1492V50.6266Z" fill="#FFE885"/>
<path d="M61.1562 36.0554C63.5633 33.8784 66.6042 32.5295 69.8336 32.2062V31.9164H59.4781C57.9479 33.0923 56.5995 34.4875 55.4766 36.057L61.1562 36.0554Z" fill="#F0DC78"/>
<path d="M53.2773 54.7656H57.9758C57.2606 53.4684 56.7395 52.0734 56.4289 50.625H52.1055C52.3411 52.0445 52.7341 53.4332 53.2773 54.7656Z" fill="#F0DC78"/>
<path d="M68.2031 24.7328C64.3429 24.7325 60.5693 25.8769 57.3595 28.0213C54.1497 30.1657 51.6479 33.2137 50.1704 36.78C48.693 40.3463 48.3063 44.2706 49.0592 48.0566C49.8121 51.8427 51.6708 55.3205 54.4002 58.0502C57.1297 60.7798 60.6073 62.6388 64.3933 63.392C68.1793 64.1452 72.1037 63.7588 75.6701 62.2817C79.2365 60.8045 82.2847 58.3029 84.4294 55.0933C86.574 51.8837 87.7187 48.1102 87.7187 44.25C87.7187 39.074 85.6627 34.1099 82.0028 30.4498C78.343 26.7897 73.3791 24.7332 68.2031 24.7328ZM68.2031 59.5219C65.1825 59.5223 62.2296 58.627 59.7178 56.9492C57.2061 55.2714 55.2483 52.8864 54.092 50.0959C52.9358 47.3054 52.633 44.2346 53.222 41.272C53.811 38.3094 55.2654 35.588 57.4011 33.452C59.5368 31.3159 62.258 29.8612 65.2205 29.2717C68.183 28.6823 71.2538 28.9846 74.0445 30.1404C76.8352 31.2962 79.2205 33.2536 80.8987 35.7651C82.5769 38.2766 83.4726 41.2294 83.4726 44.25C83.4726 48.2999 81.8639 52.184 79.0004 55.048C76.1369 57.912 72.253 59.5212 68.2031 59.5219Z" fill="#00A5E7" fill-opacity="0.15"/>
<path d="M86.5953 60.8328C86.8156 60.6152 87.0737 60.4397 87.357 60.3149L83.4578 56.4156C82.5459 57.5577 81.5093 58.5944 80.3672 59.5063L84.2664 63.4055C84.3912 63.1222 84.5668 62.864 84.7844 62.6438L86.5953 60.8328Z" fill="#F0F0E6"/>
<path d="M86.5788 60.8372L84.7682 62.6478C83.7683 63.6477 83.7683 65.269 84.7682 66.269L93.0186 74.5193C94.0185 75.5193 95.6398 75.5193 96.6398 74.5193L98.4503 72.7087C99.4503 71.7088 99.4503 70.0875 98.4503 69.0876L90.2 60.8372C89.2 59.8373 87.5788 59.8373 86.5788 60.8372Z" fill="#F0F0E6"/>
<path d="M98.4375 72.7344C98.1997 72.9722 97.9173 73.1609 97.6066 73.2896C97.2959 73.4183 96.9629 73.4845 96.6265 73.4845C96.2902 73.4845 95.9572 73.4183 95.6465 73.2896C95.3357 73.1609 95.0534 72.9722 94.8156 72.7344L86.5625 64.4844C86.3246 64.2466 86.136 63.9642 86.0073 63.6535C85.8786 63.3428 85.8123 63.0098 85.8123 62.6734C85.8123 62.3371 85.8786 62.0041 86.0073 61.6934C86.136 61.3826 86.3246 61.1003 86.5625 60.8625L86.5773 60.8477L84.7804 62.6445C84.5426 62.8823 84.3539 63.1647 84.2252 63.4754C84.0965 63.7861 84.0303 64.1191 84.0303 64.4555C84.0303 64.7918 84.0965 65.1248 84.2252 65.4356C84.3539 65.7463 84.5426 66.0286 84.7804 66.2664L93.032 74.518C93.2698 74.7558 93.5521 74.9445 93.8629 75.0732C94.1736 75.2019 94.5066 75.2681 94.8429 75.2681C95.1793 75.2681 95.5123 75.2019 95.823 75.0732C96.1337 74.9445 96.4161 74.7558 96.6539 74.518L98.4648 72.707L98.4375 72.7344Z" fill="#D9D9D2"/>
<path d="M10.1563 13.3594H0.781293C0.574092 13.3594 0.375378 13.2771 0.228866 13.1306C0.0823528 12.984 4.275e-05 12.7853 4.275e-05 12.5781V5.46875C-0.005587 4.04758 0.545018 2.6806 1.53413 1.6601C2.52324 0.639599 3.87236 0.0465702 5.29301 0.0078125C5.36489 0 5.41723 0 5.46879 0C6.91869 0.00165419 8.30873 0.578356 9.33396 1.60359C10.3592 2.62882 10.9359 4.01886 10.9375 5.46875C10.9375 5.55156 10.9375 5.63359 10.929 5.71563C10.9345 5.75261 10.9374 5.78995 10.9375 5.82734V12.5781C10.9375 12.7853 10.8552 12.984 10.7087 13.1306C10.5622 13.2771 10.3635 13.3594 10.1563 13.3594ZM1.56254 11.7969H9.37504V5.99453C9.35841 5.91971 9.35289 5.84284 9.35864 5.76641C9.36645 5.66797 9.37504 5.56953 9.37504 5.46875C9.3738 4.43313 8.96185 3.44028 8.22956 2.70798C7.49726 1.97569 6.50442 1.56374 5.46879 1.5625L5.35942 1.56875C4.34221 1.59306 3.37501 2.01499 2.66523 2.74404C1.95545 3.4731 1.5596 4.45125 1.56254 5.46875V11.7969Z" fill="#005897"/>
<path d="M14.8438 100C13.3939 99.9983 12.0038 99.4216 10.9786 98.3964C9.95336 97.3712 9.37665 95.9811 9.375 94.5312V5.98359C9.35887 5.91267 9.35334 5.83974 9.35859 5.76719C9.36641 5.66797 9.375 5.56953 9.375 5.46875C9.37376 4.43313 8.96181 3.44028 8.22952 2.70798C7.49722 1.97569 6.50437 1.56374 5.46875 1.5625C5.26155 1.5625 5.06284 1.48019 4.91632 1.33368C4.76981 1.18716 4.6875 0.98845 4.6875 0.78125C4.6875 0.57405 4.76981 0.375336 4.91632 0.228823C5.06284 0.08231 5.26155 0 5.46875 0L73.1484 0C74.5983 0.00165419 75.9884 0.578356 77.0136 1.60359C78.0388 2.62882 78.6155 4.01886 78.6172 5.46875V27.2789C78.6171 27.4156 78.5812 27.5498 78.5131 27.6682C78.4449 27.7867 78.3469 27.8852 78.2287 27.9539C78.1106 28.0226 77.9765 28.0591 77.8399 28.0598C77.7033 28.0605 77.5688 28.0253 77.45 27.9578C74.6 26.3393 71.3752 25.4968 68.0978 25.5143C64.8203 25.5319 61.6048 26.4088 58.7722 28.0577C55.9397 29.7066 53.5892 32.0696 51.9555 34.911C50.3218 37.7523 49.462 40.9725 49.462 44.25C49.462 47.5275 50.3218 50.7477 51.9555 53.589C53.5892 56.4304 55.9397 58.7934 58.7722 60.4423C61.6048 62.0912 64.8203 62.9681 68.0978 62.9857C71.3752 63.0032 74.6 62.1607 77.45 60.5422C77.5688 60.4747 77.7033 60.4395 77.8399 60.4402C77.9765 60.4409 78.1106 60.4774 78.2287 60.5461C78.3469 60.6148 78.4449 60.7133 78.5131 60.8318C78.5812 60.9502 78.6171 61.0844 78.6172 61.2211V87.4219C78.6172 87.6291 78.5349 87.8278 78.3884 87.9743C78.2419 88.1208 78.0431 88.2031 77.8359 88.2031H67.307C67.0998 88.2031 66.9011 88.1208 66.7546 87.9743C66.6081 87.8278 66.5258 87.6291 66.5258 87.4219C66.5258 87.2147 66.6081 87.016 66.7546 86.8694C66.9011 86.7229 67.0998 86.6406 67.307 86.6406H77.0547V62.5148C73.9602 64.0152 70.5352 64.7047 67.1012 64.5187C63.6672 64.3327 60.3368 63.2773 57.4224 61.4515C54.5081 59.6257 52.1054 57.0893 50.4399 54.0805C48.7744 51.0717 47.9006 47.689 47.9006 44.25C47.9006 40.811 48.7744 37.4283 50.4399 34.4195C52.1054 31.4107 54.5081 28.8743 57.4224 27.0485C60.3368 25.2227 63.6672 24.1673 67.1012 23.9813C70.5352 23.7953 73.9602 24.4848 77.0547 25.9852V5.46875C77.0534 4.43313 76.6415 3.44028 75.9092 2.70798C75.1769 1.97569 74.1841 1.56374 73.1484 1.5625H9.29297C9.81396 2.07086 10.2279 2.6784 10.5103 3.34929C10.7928 4.02018 10.938 4.74083 10.9375 5.46875C10.9375 5.55156 10.9375 5.63359 10.9289 5.71562C10.9345 5.75261 10.9373 5.78995 10.9375 5.82734V94.5312C10.9375 95.5673 11.3491 96.5608 12.0816 97.2934C12.8142 98.026 13.8077 98.4375 14.8438 98.4375C15.8798 98.4375 16.8733 98.026 17.6059 97.2934C18.3384 96.5608 18.75 95.5673 18.75 94.5312V87.4219C18.75 87.2147 18.8323 87.016 18.9788 86.8694C19.1253 86.7229 19.324 86.6406 19.5312 86.6406H59.2062C59.4134 86.6406 59.6122 86.7229 59.7587 86.8694C59.9052 87.016 59.9875 87.2147 59.9875 87.4219C59.9875 87.6291 59.9052 87.8278 59.7587 87.9743C59.6122 88.1208 59.4134 88.2031 59.2062 88.2031H20.3125V94.5312C20.3108 95.9811 19.7341 97.3712 18.7089 98.3964C17.6837 99.4216 16.2936 99.9983 14.8438 100Z" fill="#005897"/>
<path d="M68.2031 60.3031C65.6325 60.3037 63.0994 59.687 60.8169 58.5049C58.5343 57.3228 56.5689 55.6098 55.0862 53.51C53.6034 51.4102 52.6466 48.9851 52.2961 46.4385C51.9457 43.892 52.2119 41.2985 53.0724 38.8763C53.9328 36.4541 55.3624 34.2739 57.2409 32.5191C59.1193 30.7644 61.3916 29.4864 63.8668 28.7926C66.3419 28.0989 68.9475 28.0096 71.4643 28.5324C73.9811 29.0552 76.3356 30.1748 78.3296 31.7969C78.4195 31.8702 78.4919 31.9625 78.5416 32.0672C78.5913 32.172 78.6171 32.2864 78.6171 32.4024V56.0938C78.6171 56.2097 78.5913 56.3242 78.5416 56.4289C78.4919 56.5336 78.4195 56.626 78.3296 56.6992C75.4672 59.0261 71.892 60.2985 68.2031 60.3031ZM68.2031 29.7563C65.8982 29.7556 63.6265 30.3047 61.5764 31.358C59.5264 32.4113 57.7571 33.9384 56.4156 35.8126C55.0741 37.6868 54.1989 39.854 53.8629 42.1342C53.5269 44.4144 53.7396 46.7418 54.4834 48.9234C55.2272 51.1049 56.4807 53.0775 58.1397 54.6774C59.7988 56.2774 61.8156 57.4585 64.0226 58.1227C66.2296 58.787 68.5633 58.9151 70.8298 58.4966C73.0963 58.0781 75.2303 57.125 77.0546 55.7164V32.7836C74.5185 30.8267 71.4064 29.7634 68.2031 29.7594V29.7563Z" fill="#005897"/>
<path d="M77.8359 100H14.8438C14.6365 100 14.4378 99.9177 14.2913 99.7712C14.1448 99.6247 14.0625 99.4259 14.0625 99.2187C14.0625 99.0115 14.1448 98.8128 14.2913 98.6663C14.4378 98.5198 14.6365 98.4375 14.8438 98.4375C15.8794 98.4363 16.8722 98.0243 17.6045 97.292C18.3368 96.5597 18.7488 95.5669 18.75 94.5312V87.4219C18.75 87.2147 18.8323 87.016 18.9788 86.8694C19.1253 86.7229 19.324 86.6406 19.5312 86.6406H59.2062C59.4134 86.6406 59.6122 86.7229 59.7587 86.8694C59.9052 87.016 59.9875 87.2147 59.9875 87.4219C59.9875 87.6291 59.9052 87.8278 59.7587 87.9743C59.6122 88.1208 59.4134 88.2031 59.2062 88.2031H20.3125V94.5312C20.313 95.2592 20.1678 95.9798 19.8853 96.6507C19.6029 97.3216 19.189 97.9291 18.668 98.4375H77.8359C78.8716 98.4363 79.8644 98.0243 80.5967 97.292C81.329 96.5597 81.7409 95.5669 81.7422 94.5312V88.2031H67.307C67.0998 88.2031 66.9011 88.1208 66.7546 87.9743C66.6081 87.8278 66.5258 87.6291 66.5258 87.4219C66.5258 87.2147 66.6081 87.016 66.7546 86.8694C66.9011 86.7229 67.0998 86.6406 67.307 86.6406H82.5234C82.7306 86.6406 82.9294 86.7229 83.0759 86.8694C83.2224 87.016 83.3047 87.2147 83.3047 87.4219V94.5312C83.303 95.9811 82.7263 97.3712 81.7011 98.3964C80.6759 99.4216 79.2858 99.9983 77.8359 100Z" fill="#005897"/>
<path d="M23.4727 42.2172H20.2031C19.9959 42.2172 19.7972 42.1349 19.6507 41.9883C19.5042 41.8418 19.4219 41.6431 19.4219 41.4359C19.4219 41.2287 19.5042 41.03 19.6507 40.8835C19.7972 40.737 19.9959 40.6547 20.2031 40.6547H23.4727C24.0943 40.6547 24.6904 40.4077 25.1299 39.9682C25.5695 39.5287 25.8164 38.9325 25.8164 38.3109V35.0414C25.8164 34.4198 25.5695 33.8236 25.1299 33.3841C24.6904 32.9446 24.0943 32.6976 23.4727 32.6976H20.2031C19.5815 32.6976 18.9854 32.9446 18.5458 33.3841C18.1063 33.8236 17.8594 34.4198 17.8594 35.0414V38.3109C17.8594 38.5181 17.7771 38.7168 17.6306 38.8633C17.484 39.0099 17.2853 39.0922 17.0781 39.0922C16.8709 39.0922 16.6722 39.0099 16.5257 38.8633C16.3792 38.7168 16.2969 38.5181 16.2969 38.3109V35.0414C16.2981 34.0058 16.7101 33.0129 17.4424 32.2806C18.1747 31.5483 19.1675 31.1364 20.2031 31.1351H23.4727C24.5083 31.1364 25.5011 31.5483 26.2334 32.2806C26.9657 33.0129 27.3777 34.0058 27.3789 35.0414V38.3109C27.3777 39.3465 26.9657 40.3394 26.2334 41.0717C25.5011 41.804 24.5083 42.2159 23.4727 42.2172Z" fill="#005897"/>
<path d="M23.4727 60.9273H20.2031C19.1675 60.9261 18.1747 60.5142 17.4424 59.7819C16.7101 59.0496 16.2981 58.0567 16.2969 57.0211V53.75C16.2981 52.7144 16.7101 51.7215 17.4424 50.9892C18.1747 50.2569 19.1675 49.845 20.2031 49.8438H23.4727C24.5083 49.845 25.5011 50.2569 26.2334 50.9892C26.9657 51.7215 27.3777 52.7144 27.3789 53.75V57.0195C27.3781 58.0554 26.9663 59.0487 26.234 59.7813C25.5016 60.5139 24.5085 60.9261 23.4727 60.9273ZM20.2031 51.4063C19.5815 51.4063 18.9854 51.6532 18.5458 52.0927C18.1063 52.5323 17.8594 53.1284 17.8594 53.75V57.0195C17.8594 57.6411 18.1063 58.2373 18.5458 58.6768C18.9854 59.1164 19.5815 59.3633 20.2031 59.3633H23.4727C24.0943 59.3633 24.6904 59.1164 25.1299 58.6768C25.5695 58.2373 25.8164 57.6411 25.8164 57.0195V53.75C25.8164 53.1284 25.5695 52.5323 25.1299 52.0927C24.6904 51.6532 24.0943 51.4063 23.4727 51.4063H20.2031Z" fill="#005897"/>
<path d="M50.4875 36.8367H31.1492C30.942 36.8367 30.7433 36.7544 30.5967 36.6078C30.4502 36.4613 30.3679 36.2626 30.3679 36.0554V31.9148C30.3679 31.7076 30.4502 31.5089 30.5967 31.3624C30.7433 31.2159 30.942 31.1335 31.1492 31.1335H53.0765C53.2242 31.1337 53.3689 31.1757 53.4937 31.2547C53.6185 31.3338 53.7183 31.4465 53.7816 31.58C53.8449 31.7135 53.8691 31.8622 53.8513 32.0088C53.8336 32.1555 53.7746 32.2941 53.6812 32.4085C52.6896 33.6238 51.8545 34.9587 51.1953 36.382C51.133 36.5174 51.0332 36.6322 50.9078 36.7127C50.7824 36.7933 50.6365 36.8363 50.4875 36.8367ZM31.9304 35.2742H49.9953C50.4364 34.3785 50.9433 33.5168 51.5117 32.696H31.9304V35.2742Z" fill="#005897"/>
<path d="M69.8336 36.8367H55.3282C55.1881 36.8367 55.0506 36.799 54.93 36.7277C54.8095 36.6563 54.7104 36.5538 54.643 36.431C54.5757 36.3081 54.5426 36.1694 54.5473 36.0294C54.552 35.8894 54.5942 35.7532 54.6696 35.6351C55.7491 33.9421 57.1366 32.4666 58.7602 31.2851C58.8941 31.1875 59.0555 31.135 59.2211 31.1351H69.8336C70.0408 31.1351 70.2395 31.2174 70.3861 31.364C70.5326 31.5105 70.6149 31.7092 70.6149 31.9164V36.057C70.6145 36.2639 70.532 36.4622 70.3855 36.6084C70.239 36.7546 70.0406 36.8367 69.8336 36.8367ZM56.8422 35.2742H69.0524V32.6961H59.4805C58.495 33.4398 57.6084 34.3061 56.8422 35.2742Z" fill="#005897"/>
<path d="M69.8336 55.5469H57.1454C57.0394 55.5469 56.9345 55.5254 56.8372 55.4836C56.7398 55.4419 56.6519 55.3807 56.5789 55.3039C55.3626 54.026 54.3656 52.5559 53.6282 50.9532C53.5734 50.8341 53.5495 50.7033 53.5585 50.5726C53.5676 50.4419 53.6093 50.3156 53.68 50.2053C53.7506 50.095 53.8479 50.0042 53.9628 49.9413C54.0777 49.8784 54.2065 49.8454 54.3375 49.8453H69.8336C70.0408 49.8453 70.2395 49.9276 70.3861 50.0742C70.5326 50.2207 70.6149 50.4194 70.6149 50.6266V54.7672C70.6145 54.9741 70.532 55.1725 70.3855 55.3186C70.239 55.4648 70.0406 55.5469 69.8336 55.5469ZM57.4899 53.9844H69.0524V51.4063H55.6149C56.1416 52.332 56.7691 53.1966 57.486 53.9844H57.4899Z" fill="#005897"/>
<path d="M51.7632 55.5469H31.1492C30.942 55.5469 30.7433 55.4646 30.5967 55.3181C30.4502 55.1715 30.3679 54.9728 30.3679 54.7656V50.625C30.3679 50.4178 30.4502 50.2191 30.5967 50.0726C30.7433 49.9261 30.942 49.8438 31.1492 49.8438H49.7554C49.9179 49.8438 50.0763 49.8944 50.2086 49.9886C50.3409 50.0829 50.4406 50.216 50.4937 50.3695C50.9768 51.7662 51.6241 53.1005 52.4218 54.3445C52.4976 54.4626 52.5401 54.5989 52.545 54.739C52.55 54.8792 52.517 55.0181 52.4498 55.1412C52.3825 55.2643 52.2833 55.367 52.1626 55.4385C52.042 55.51 51.9043 55.5477 51.764 55.5477L51.7632 55.5469ZM31.9304 53.9844H50.3906C49.9359 53.1537 49.5399 52.2922 49.2054 51.4063H31.9304V53.9844Z" fill="#005897"/>
<path d="M22.1312 25.514H17.0781C16.8709 25.514 16.6722 25.4317 16.5257 25.2852C16.3792 25.1387 16.2969 24.94 16.2969 24.7328C16.2969 24.5256 16.3792 24.3269 16.5257 24.1804C16.6722 24.0338 16.8709 23.9515 17.0781 23.9515H22.1312C22.3384 23.9515 22.5372 24.0338 22.6837 24.1804C22.8302 24.3269 22.9125 24.5256 22.9125 24.7328C22.9125 24.94 22.8302 25.1387 22.6837 25.2852C22.5372 25.4317 22.3384 25.514 22.1312 25.514Z" fill="#005897"/>
<path d="M68.2032 25.514H27.7063C27.4991 25.514 27.3004 25.4317 27.1539 25.2852C27.0074 25.1387 26.925 24.94 26.925 24.7328C26.925 24.5256 27.0074 24.3269 27.1539 24.1804C27.3004 24.0338 27.4991 23.9515 27.7063 23.9515H68.2032C68.4104 23.9515 68.6091 24.0338 68.7556 24.1804C68.9021 24.3269 68.9844 24.5256 68.9844 24.7328C68.9844 24.94 68.9021 25.1387 68.7556 25.2852C68.6091 25.4317 68.4104 25.514 68.2032 25.514Z" fill="#005897"/>
<path d="M69.8336 69.8961H17.0781C16.8709 69.8961 16.6722 69.8138 16.5257 69.6673C16.3792 69.5208 16.2969 69.3221 16.2969 69.1149C16.2969 68.9077 16.3792 68.709 16.5257 68.5624C16.6722 68.4159 16.8709 68.3336 17.0781 68.3336H69.8336C70.0408 68.3336 70.2395 68.4159 70.386 68.5624C70.5325 68.709 70.6148 68.9077 70.6148 69.1149C70.6148 69.3221 70.5325 69.5208 70.386 69.6673C70.2395 69.8138 70.0408 69.8961 69.8336 69.8961Z" fill="#005897"/>
<path d="M69.8344 75.6586H17.0781C16.8709 75.6586 16.6722 75.5763 16.5257 75.4297C16.3792 75.2832 16.2969 75.0845 16.2969 74.8773C16.2969 74.6701 16.3792 74.4714 16.5257 74.3249C16.6722 74.1784 16.8709 74.0961 17.0781 74.0961H69.8344C70.0416 74.0961 70.2403 74.1784 70.3868 74.3249C70.5333 74.4714 70.6156 74.6701 70.6156 74.8773C70.6156 75.0845 70.5333 75.2832 70.3868 75.4297C70.2403 75.5763 70.0416 75.6586 69.8344 75.6586Z" fill="#005897"/>
<path d="M69.8336 81.4219H17.0781C16.8709 81.4219 16.6722 81.3396 16.5257 81.1931C16.3792 81.0465 16.2969 80.8478 16.2969 80.6406C16.2969 80.4334 16.3792 80.2347 16.5257 80.0882C16.6722 79.9417 16.8709 79.8594 17.0781 79.8594H69.8336C70.0408 79.8594 70.2395 79.9417 70.386 80.0882C70.5325 80.2347 70.6148 80.4334 70.6148 80.6406C70.6148 80.8478 70.5325 81.0465 70.386 81.1931C70.2395 81.3396 70.0408 81.4219 69.8336 81.4219Z" fill="#005897"/>
<path d="M69.8344 41.918H53.2477C53.0405 41.918 52.8418 41.8357 52.6953 41.6891C52.5487 41.5426 52.4664 41.3439 52.4664 41.1367C52.4664 40.9295 52.5487 40.7308 52.6953 40.5843C52.8418 40.4378 53.0405 40.3555 53.2477 40.3555H69.8336C70.0408 40.3555 70.2395 40.4378 70.386 40.5843C70.5326 40.7308 70.6149 40.9295 70.6149 41.1367C70.6149 41.3439 70.5326 41.5426 70.386 41.6891C70.2395 41.8357 70.0408 41.918 69.8336 41.918H69.8344Z" fill="#005897"/>
<path d="M48.9335 41.918H31.1492C30.942 41.918 30.7433 41.8357 30.5967 41.6891C30.4502 41.5426 30.3679 41.3439 30.3679 41.1367C30.3679 40.9295 30.4502 40.7308 30.5967 40.5843C30.7433 40.4378 30.942 40.3555 31.1492 40.3555H48.9335C49.1407 40.3555 49.3395 40.4378 49.486 40.5843C49.6325 40.7308 49.7148 40.9295 49.7148 41.1367C49.7148 41.3439 49.6325 41.5426 49.486 41.6891C49.3395 41.8357 49.1407 41.918 48.9335 41.918Z" fill="#005897"/>
<path d="M37.2039 60.3297H31.1492C30.942 60.3297 30.7433 60.2474 30.5967 60.1009C30.4502 59.9544 30.3679 59.7557 30.3679 59.5485C30.3679 59.3413 30.4502 59.1425 30.5967 58.996C30.7433 58.8495 30.942 58.7672 31.1492 58.7672H37.2039C37.4111 58.7672 37.6098 58.8495 37.7563 58.996C37.9028 59.1425 37.9851 59.3413 37.9851 59.5485C37.9851 59.7557 37.9028 59.9544 37.7563 60.1009C37.6098 60.2474 37.4111 60.3297 37.2039 60.3297Z" fill="#005897"/>
<path d="M56.0867 60.3297H45.1774C44.9702 60.3297 44.7715 60.2474 44.6249 60.1009C44.4784 59.9544 44.3961 59.7557 44.3961 59.5485C44.3961 59.3413 44.4784 59.1425 44.6249 58.996C44.7715 58.8495 44.9702 58.7672 45.1774 58.7672H56.0867C56.2939 58.7672 56.4927 58.8495 56.6392 58.996C56.7857 59.1425 56.868 59.3413 56.868 59.5485C56.868 59.7557 56.7857 59.9544 56.6392 60.1009C56.4927 60.2474 56.2939 60.3297 56.0867 60.3297Z" fill="#005897"/>
<path d="M68.2031 64.5493C64.1884 64.5496 60.2638 63.3594 56.9255 61.1292C53.5873 58.899 50.9853 55.729 49.4487 52.02C47.9121 48.311 47.5099 44.2297 48.2929 40.2921C49.0758 36.3545 51.0089 32.7375 53.8475 29.8985C56.6862 27.0595 60.3029 25.1261 64.2404 24.3426C68.1779 23.5592 72.2593 23.961 75.9685 25.4972C79.6777 27.0333 82.848 29.6349 85.0786 32.9729C87.3092 36.3109 88.4998 40.2354 88.5 44.2501C88.494 49.6315 86.3537 54.7908 82.5487 58.5963C78.7436 62.4018 73.5845 64.5427 68.2031 64.5493ZM68.2031 25.5141C64.4974 25.5138 60.8748 26.6124 57.7935 28.6709C54.7122 30.7295 52.3105 33.6555 50.8922 37.079C49.4739 40.5026 49.1026 44.2698 49.8254 47.9043C50.5482 51.5388 52.3325 54.8774 54.9527 57.4978C57.5729 60.1182 60.9113 61.9028 64.5457 62.6259C68.1802 63.3489 71.9475 62.978 75.3711 61.56C78.7947 60.1419 81.721 57.7405 83.7798 54.6593C85.8386 51.5782 86.9375 47.9557 86.9375 44.2501C86.9317 39.283 84.9561 34.5211 81.444 31.0087C77.9319 27.4963 73.1701 25.5203 68.2031 25.5141ZM68.2031 60.3032C65.028 60.3035 61.9242 59.3623 59.284 57.5985C56.6439 55.8348 54.5861 53.3277 53.3708 50.3944C52.1556 47.4611 51.8374 44.2333 52.4567 41.1192C53.0759 38.0051 54.6047 35.1446 56.8497 32.8993C59.0947 30.6541 61.9551 29.125 65.0691 28.5055C68.1832 27.886 71.411 28.2038 74.3444 29.4188C77.2778 30.6337 79.7851 32.6913 81.5491 35.3313C83.3131 37.9712 84.2547 41.075 84.2547 44.2501C84.2499 48.5059 82.5573 52.5861 79.5481 55.5955C76.5389 58.605 72.4589 60.298 68.2031 60.3032ZM68.2031 29.7563C65.3372 29.756 62.5355 30.6055 60.1524 32.1974C57.7693 33.7894 55.9118 36.0522 54.8147 38.6998C53.7176 41.3474 53.4302 44.2609 53.9889 47.0718C54.5476 49.8827 55.9273 52.4649 57.9534 54.4917C59.9796 56.5185 62.5613 57.899 65.3721 58.4586C68.1828 59.0182 71.0964 58.7318 73.7443 57.6356C76.3923 56.5393 78.6557 54.6825 80.2484 52.2999C81.8411 49.9173 82.6915 47.116 82.6922 44.2501C82.6878 40.4085 81.1599 36.7255 78.4437 34.009C75.7275 31.2925 72.0446 29.7642 68.2031 29.7594V29.7563Z" fill="#005897"/>
<path d="M84.2664 64.1875C84.0592 64.1875 83.8605 64.1051 83.714 63.9586L79.8148 60.0594C79.7371 59.9816 79.6767 59.8884 79.6376 59.7858C79.5984 59.6831 79.5813 59.5733 79.5874 59.4636C79.5935 59.3539 79.6227 59.2467 79.6731 59.1491C79.7234 59.0514 79.7938 58.9655 79.8797 58.8969C80.9765 58.0207 81.9722 57.0249 82.8484 55.9281C82.917 55.8423 83.0029 55.7719 83.1006 55.7215C83.1983 55.6712 83.3054 55.642 83.4152 55.6359C83.5249 55.6297 83.6346 55.6468 83.7373 55.686C83.8399 55.7252 83.9332 55.7856 84.0109 55.8633L87.9101 59.7625C87.9995 59.8521 88.0657 59.9621 88.1032 60.083C88.1406 60.2039 88.1481 60.332 88.1251 60.4565C88.102 60.5809 88.0491 60.6979 87.9708 60.7973C87.8925 60.8967 87.7913 60.9757 87.6757 61.0273C87.4786 61.1133 87.2989 61.2346 87.1453 61.3851L85.3351 63.1961C85.1846 63.3494 85.0634 63.5289 84.9773 63.7258C84.9255 63.8412 84.8465 63.9423 84.747 64.0204C84.6475 64.0985 84.5306 64.1513 84.4062 64.1742C84.3601 64.1829 84.3133 64.1874 84.2664 64.1875ZM81.5234 59.5586L84.1453 62.1805C84.1734 62.15 84.2023 62.1195 84.232 62.0906L86.0414 60.2805C86.0703 60.2508 86.1 60.2227 86.1304 60.1945L83.5086 57.5726C82.8934 58.2793 82.2303 58.9428 81.5242 59.5586H81.5234Z" fill="#005897"/>
<path d="M94.8438 76.0469C94.4049 76.0477 93.9702 75.9617 93.5646 75.794C93.1591 75.6263 92.7906 75.3801 92.4805 75.0696L84.2321 66.818C83.6062 66.1907 83.2548 65.3408 83.2548 64.4547C83.2548 63.5686 83.6062 62.7187 84.2321 62.0914L86.0422 60.2805C86.6695 59.6547 87.5194 59.3032 88.4055 59.3032C89.2916 59.3032 90.1415 59.6547 90.7688 60.2805L99.0211 68.5329C99.6469 69.1601 99.9984 70.0101 99.9984 70.8961C99.9984 71.7822 99.6469 72.6321 99.0211 73.2594L97.2102 75.0704C96.8996 75.3811 96.5306 75.6274 96.1245 75.795C95.7184 75.9626 95.2831 76.0482 94.8438 76.0469ZM88.4063 60.8657C88.1726 60.8653 87.9411 60.911 87.7251 61.0003C87.5091 61.0896 87.3129 61.2207 87.1477 61.386L85.3375 63.1969C85.004 63.5309 84.8167 63.9836 84.8167 64.4555C84.8167 64.9275 85.004 65.3801 85.3375 65.7141L93.5891 73.9657C93.9233 74.2988 94.3758 74.4858 94.8477 74.4858C95.3195 74.4858 95.7721 74.2988 96.1063 73.9657L97.9172 72.1547C98.2503 71.8206 98.4373 71.368 98.4373 70.8961C98.4373 70.4243 98.2503 69.9717 97.9172 69.6375L89.6649 61.3852C89.4996 61.22 89.3034 61.089 89.0874 60.9999C88.8714 60.9107 88.6399 60.8651 88.4063 60.8657Z" fill="#005897"/>
<path d="M69.8344 19.7508H17.0781C16.8709 19.7508 16.6722 19.6685 16.5257 19.522C16.3792 19.3754 16.2969 19.1767 16.2969 18.9695V13.2031C16.2969 12.9959 16.3792 12.7972 16.5257 12.6507C16.6722 12.5042 16.8709 12.4219 17.0781 12.4219H57.9758C58.183 12.4219 58.3817 12.5042 58.5282 12.6507C58.6747 12.7972 58.757 12.9959 58.757 13.2031C58.757 13.4103 58.6747 13.609 58.5282 13.7556C58.3817 13.9021 58.183 13.9844 57.9758 13.9844H17.8594V18.1852H69.0531V13.9844H64.0531C63.8459 13.9844 63.6472 13.9021 63.5007 13.7556C63.3542 13.609 63.2719 13.4103 63.2719 13.2031C63.2719 12.9959 63.3542 12.7972 63.5007 12.6507C63.6472 12.5042 63.8459 12.4219 64.0531 12.4219H69.8344C70.0416 12.4219 70.2403 12.5042 70.3868 12.6507C70.5333 12.7972 70.6156 12.9959 70.6156 13.2031V18.9664C70.616 19.0693 70.5961 19.1712 70.5571 19.2663C70.518 19.3615 70.4605 19.448 70.3879 19.5209C70.3153 19.5937 70.2291 19.6516 70.1341 19.691C70.0391 19.7305 69.9372 19.7508 69.8344 19.7508Z" fill="#005897"/>
</g>
<defs>
<clipPath id="clip0_88_719">
<rect width="100" height="100" fill="white"/>
</clipPath>
</defs>
</svg>
