<svg width="68" height="68" viewBox="0 0 68 68" fill="none" xmlns="http://www.w3.org/2000/svg">
<g clip-path="url(#clip0_26_146)">
<path d="M61.4081 58.7355L54.6599 51.9873C57.6249 46.6973 57.0505 39.9436 52.9376 35.2204V14.0204C52.9376 12.2298 51.4808 10.773 49.6902 10.773H41.8446V9.74286C41.8446 6.98581 39.6015 4.7426 36.8443 4.7426H35.637V3.55937C35.637 1.5968 34.0402 0 32.0777 0H26.7854C24.8228 0 23.226 1.59667 23.226 3.55937V4.74273H22.0187C19.2617 4.74273 17.0185 6.98581 17.0185 9.74299V10.7731H9.17269C7.38211 10.7731 5.92529 12.2299 5.92529 14.0205V64.7529C5.92529 66.5434 7.38211 68.0003 9.17269 68.0003H43.5377C44.0867 68.0003 44.5318 67.5552 44.5318 67.0062C44.5318 66.4571 44.0867 66.0121 43.5377 66.0121H9.17269C8.47835 66.0121 7.9135 65.4472 7.9135 64.7529V14.0204C7.9135 13.326 8.47835 12.7612 9.17269 12.7612H17.0183V13.0863C17.0183 14.0218 17.7795 14.7831 18.7151 14.7831H21.9667C22.5157 14.7831 22.9608 14.338 22.9608 13.789C22.9608 13.2399 22.5157 12.7949 21.9667 12.7949H19.0065V9.74286C19.0065 8.08204 20.3578 6.7308 22.0186 6.7308H36.8442C38.505 6.7308 39.8562 8.08204 39.8562 9.74286V12.7948H26.7903C26.2412 12.7948 25.7962 13.2398 25.7962 13.7889C25.7962 14.3379 26.2412 14.783 26.7903 14.783H40.1476C41.0832 14.783 41.8444 14.0218 41.8444 13.0861V12.761H49.6901C50.3844 12.761 50.9493 13.3259 50.9493 14.0202V33.3273C46.257 29.6257 39.7112 29.1165 34.4676 32.206C33.9947 32.4847 33.8372 33.0941 34.1158 33.5672C34.3945 34.0401 35.0038 34.1976 35.477 33.919C40.441 30.9941 46.7573 31.8006 50.837 35.8805C55.7692 40.8126 55.7692 48.8378 50.837 53.7701C48.4477 56.1594 45.2711 57.4751 41.8922 57.4751C38.5134 57.4751 35.3366 56.1594 32.9475 53.7701C28.3148 49.1374 28.0109 41.6082 32.2559 36.6292C32.6121 36.2113 32.5622 35.5839 32.1443 35.2277C31.7265 34.8716 31.0992 34.9213 30.7429 35.3393C28.3622 38.1318 27.1269 41.6962 27.2647 45.3758C27.4031 49.0758 28.922 52.5562 31.5418 55.1758C34.3065 57.9405 37.9825 59.4632 41.8924 59.4632C44.4433 59.4632 46.8944 58.8147 49.0579 57.5964L50.9494 59.4879V64.7523C50.9494 65.4467 50.3845 66.0115 49.6902 66.0115H48.3371C47.7881 66.0115 47.343 66.4566 47.343 67.0056C47.343 67.5547 47.7881 67.9997 48.3371 67.9997H49.6902C51.4808 67.9997 52.9376 66.5429 52.9376 64.7523V61.476L55.8025 64.3409C56.2461 64.7845 56.8287 65.0063 57.4115 65.0063C57.9942 65.0063 58.5771 64.7845 59.0207 64.3409L61.4082 61.9533C61.838 61.5235 62.0748 60.952 62.0748 60.3442C62.0747 59.7368 61.8379 59.1653 61.4081 58.7355ZM25.2141 3.55937C25.2141 2.69304 25.9189 1.9882 26.7852 1.9882H32.0775C32.9439 1.9882 33.6487 2.69304 33.6487 3.55937V4.74273H25.2141V3.55937ZM60.0023 60.5479L57.6149 62.9355C57.5026 63.0476 57.3204 63.0476 57.2083 62.9355L50.7523 56.4794C51.2732 56.0817 51.7716 55.6474 52.243 55.176C52.7167 54.7023 53.1502 54.2033 53.5453 53.6844L60.0023 60.1414C60.1143 60.2534 60.1143 60.4358 60.0023 60.5479Z" fill="white"/>
<path d="M37.7254 22.918H46.1514C46.7004 22.918 47.1455 22.473 47.1455 21.9239C47.1455 21.3749 46.7004 20.9298 46.1514 20.9298H37.7254C37.1763 20.9298 36.7313 21.3749 36.7313 21.9239C36.7313 22.473 37.1763 22.918 37.7254 22.918Z" fill="white"/>
<path d="M13.1604 22.918H31.5521C32.1011 22.918 32.5462 22.473 32.5462 21.9239C32.5462 21.3749 32.1011 20.9298 31.5521 20.9298H13.1604C12.6113 20.9298 12.1663 21.3749 12.1663 21.9239C12.1663 22.473 12.6113 22.918 13.1604 22.918Z" fill="white"/>
<path d="M13.1604 27.0108H31.5521C32.1011 27.0108 32.5462 26.5658 32.5462 26.0167C32.5462 25.4677 32.1011 25.0226 31.5521 25.0226H13.1604C12.6113 25.0226 12.1663 25.4677 12.1663 26.0167C12.1663 26.5657 12.6113 27.0108 13.1604 27.0108Z" fill="white"/>
<path d="M24.7947 30.3053C24.7947 29.7562 24.3497 29.3112 23.8006 29.3112H13.1604C12.6113 29.3112 12.1663 29.7562 12.1663 30.3053C12.1663 30.8543 12.6113 31.2994 13.1604 31.2994H23.8006C24.3497 31.2994 24.7947 30.8543 24.7947 30.3053Z" fill="white"/>
<path d="M37.7254 27.0108H46.1514C46.7004 27.0108 47.1455 26.5658 47.1455 26.0167C47.1455 25.4677 46.7004 25.0226 46.1514 25.0226H37.7254C37.1763 25.0226 36.7313 25.4677 36.7313 26.0167C36.7313 26.5657 37.1763 27.0108 37.7254 27.0108Z" fill="white"/>
<path d="M16.6395 39.9904C13.9736 39.9904 11.8046 42.1593 11.8046 44.8253C11.8046 47.4913 13.9736 49.6603 16.6395 49.6603C19.3056 49.6603 21.4746 47.4913 21.4746 44.8253C21.4746 42.1593 19.3056 39.9904 16.6395 39.9904ZM16.6395 47.6722C15.0698 47.6722 13.7928 46.3952 13.7928 44.8254C13.7928 43.2557 15.0698 41.9787 16.6395 41.9787C18.2092 41.9787 19.4864 43.2557 19.4864 44.8254C19.4864 46.3951 18.2094 47.6722 16.6395 47.6722Z" fill="white"/>
<path d="M16.6395 53.3942C13.9736 53.3942 11.8046 55.5632 11.8046 58.2293C11.8046 60.8952 13.9736 63.0642 16.6395 63.0642C19.3056 63.0642 21.4746 60.8952 21.4746 58.2293C21.4746 55.5632 19.3056 53.3942 16.6395 53.3942ZM16.6395 61.076C15.0698 61.076 13.7928 59.799 13.7928 58.2293C13.7928 56.6596 15.0698 55.3824 16.6395 55.3824C18.2092 55.3824 19.4864 56.6596 19.4864 58.2293C19.4864 59.799 18.2094 61.076 16.6395 61.076Z" fill="white"/>
<path d="M24.8431 59.2234H29.4314C29.9804 59.2234 30.4255 58.7783 30.4255 58.2293C30.4255 57.6802 29.9804 57.2352 29.4314 57.2352H24.8431C24.2941 57.2352 23.849 57.6802 23.849 58.2293C23.849 58.7783 24.2941 59.2234 24.8431 59.2234Z" fill="white"/>
</g>
<defs>
<clipPath id="clip0_26_146">
<rect width="68" height="68" fill="white"/>
</clipPath>
</defs>
</svg>
