<svg width="18" height="18" viewBox="0 0 18 18" fill="none" xmlns="http://www.w3.org/2000/svg">
<g clip-path="url(#clip0_89_794)">
<path d="M17.2969 5.09756C16.9085 5.09756 16.5937 5.41232 16.5937 5.80068V15.1873C16.5937 15.7826 16.2217 16.2923 15.6981 16.4972C15.7251 16.301 15.7192 16.0991 15.6773 15.8994C15.3608 14.3875 14.5224 13.0117 13.3169 12.0257C12.7529 11.5645 12.12 11.1992 11.4461 10.9393C12.2083 10.2687 12.69 9.28678 12.69 8.19419C12.69 6.1782 11.0499 4.53794 9.03378 4.53794C7.01779 4.53794 5.37753 6.1782 5.37753 8.19419C5.37753 9.27689 5.85076 10.251 6.60113 10.9211C5.90954 11.1821 5.26011 11.5537 4.68306 12.0257C3.47744 13.0117 2.63919 14.3873 2.32251 15.8993C2.28076 16.0991 2.27472 16.301 2.30191 16.4971C1.77827 16.2923 1.40625 15.7826 1.40625 15.1873V2.81241C1.40625 2.03691 2.03714 1.40616 2.8125 1.40616H10.1953C10.5837 1.40616 10.8984 1.09126 10.8984 0.703033C10.8984 0.314666 10.5837 -9.1641e-05 10.1953 -9.1641e-05H2.8125C1.26164 -9.1641e-05 0 1.26155 0 2.81241V15.1873C0 16.7381 1.26164 17.9998 2.8125 17.9998H15.1875C16.7382 17.9998 18 16.7381 18 15.1873V5.80055C18 5.41232 17.6851 5.09756 17.2969 5.09756ZM9.03378 5.94419C10.2745 5.94419 11.2838 6.95356 11.2838 8.19419C11.2838 9.43496 10.2745 10.4442 9.03378 10.4442C7.79315 10.4442 6.78378 9.43496 6.78378 8.19419C6.78378 6.95356 7.79315 5.94419 9.03378 5.94419ZM3.76693 16.4688C3.72917 16.4225 3.67025 16.3243 3.69896 16.1876C4.21888 13.7041 6.44526 11.8989 8.99999 11.883C11.5547 11.8989 13.781 13.7041 14.301 16.1876C14.3296 16.3243 14.2707 16.4225 14.2331 16.4688C14.1953 16.5155 14.1107 16.5935 13.9692 16.5935H4.03074C3.88929 16.5935 3.8047 16.5155 3.76693 16.4688ZM11.5263 3.16905C11.2516 2.89453 11.2516 2.44931 11.5262 2.17465C11.8007 1.89999 12.2459 1.89986 12.5204 2.17451L14.1217 3.77508C14.1399 3.79088 14.1616 3.79802 14.1861 3.79651C14.2086 3.795 14.2277 3.78648 14.2431 3.7711L16.723 0.294616C16.9486 -0.021515 17.3876 -0.094986 17.7038 0.130508C18.0199 0.356002 18.0934 0.795181 17.8677 1.11131L15.3705 4.61197C15.3627 4.62281 15.3546 4.63353 15.3462 4.6441C15.0848 4.9693 14.696 5.17186 14.2796 5.1996C14.2466 5.20179 14.2137 5.20289 14.1809 5.20289C13.7987 5.20289 13.4272 5.05554 13.1488 4.79049C13.1447 4.78665 13.1406 4.78253 13.1365 4.77855L11.5263 3.16905Z" fill="#00A5E7"/>
</g>
<defs>
<clipPath id="clip0_89_794">
<rect width="18" height="18" fill="white"/>
</clipPath>
</defs>
</svg>
