<svg width="32" height="32" viewBox="0 0 32 32" fill="none" xmlns="http://www.w3.org/2000/svg">
<path d="M28.5 20.5C28.3674 20.5 28.2402 20.5527 28.1465 20.6464C28.0527 20.7402 28 20.8674 28 21V29.323L19.6275 21.25L20.5275 20.3825C22.0438 21.0399 23.7349 21.1774 25.3375 20.7736C26.9401 20.3699 28.3642 19.4476 29.3881 18.1502C30.4119 16.8529 30.9781 15.2534 30.9983 13.6009C31.0185 11.9484 30.4918 10.3355 29.5 9.01349C29.4204 8.9074 29.302 8.83727 29.1707 8.81852C29.0394 8.79976 28.9061 8.83393 28.8 8.91349C28.6939 8.99305 28.6238 9.1115 28.605 9.24278C28.5863 9.37405 28.6204 9.5074 28.7 9.61349C29.545 10.7328 30.0015 12.0975 30 13.5C30 14.7856 29.6188 16.0423 28.9046 17.1112C28.1903 18.1801 27.1752 19.0132 25.9874 19.5052C24.7997 19.9972 23.4928 20.1259 22.2319 19.8751C20.971 19.6243 19.8129 19.0052 18.9038 18.0962C17.9948 17.1871 17.3757 16.029 17.1249 14.7681C16.8741 13.5072 17.0028 12.2003 17.4948 11.0125C17.9868 9.82483 18.8199 8.80967 19.8888 8.09544C20.9577 7.38121 22.2144 6.99999 23.5 6.99999C24.9025 6.99849 26.2672 7.45495 27.3865 8.29999C27.4926 8.37956 27.6259 8.41372 27.7572 8.39496C27.8885 8.37621 28.0069 8.30608 28.0865 8.19999C28.1661 8.0939 28.2002 7.96055 28.1815 7.82928C28.1627 7.698 28.0926 7.57955 27.9865 7.49999C27.0112 6.76736 25.8715 6.28434 24.6667 6.093C23.462 5.90167 22.2287 6.00782 21.0744 6.40221C19.92 6.7966 18.8796 7.46727 18.0438 8.35579C17.208 9.24431 16.6021 10.3237 16.279 11.5H1.5C1.36739 11.5 1.24021 11.5527 1.14645 11.6464C1.05268 11.7402 1 11.8674 1 12V19.5C1 19.6326 1.05268 19.7598 1.14645 19.8535C1.24021 19.9473 1.36739 20 1.5 20C1.63261 20 1.75979 19.9473 1.85355 19.8535C1.94732 19.7598 2 19.6326 2 19.5V13.24L6.0875 17.485C6.17953 17.5805 6.30575 17.6356 6.43838 17.6381C6.57102 17.6406 6.69921 17.5903 6.79475 17.4982C6.8903 17.4062 6.94537 17.28 6.94785 17.1474C6.95034 17.0147 6.90003 16.8865 6.808 16.791L2.6755 12.5H16.0755C15.869 13.9419 16.0931 15.4127 16.7196 16.7277C17.3461 18.0428 18.3471 19.1434 19.597 19.8915L14.514 24.7915L8.1955 18.232C8.10347 18.1364 7.97726 18.0814 7.84462 18.0789C7.71199 18.0764 7.58379 18.1267 7.48825 18.2187C7.39271 18.3108 7.33763 18.437 7.33515 18.5696C7.33266 18.7023 7.38297 18.8304 7.475 18.926L9.7135 21.25L2 29.26V21.5C2 21.3674 1.94732 21.2402 1.85355 21.1464C1.75979 21.0527 1.63261 21 1.5 21C1.36739 21 1.24021 21.0527 1.14645 21.1464C1.05268 21.2402 1 21.3674 1 21.5V30.5C1 30.6326 1.05268 30.7598 1.14645 30.8535C1.24021 30.9473 1.36739 31 1.5 31H17.5C17.6326 31 17.7598 30.9473 17.8536 30.8535C17.9473 30.7598 18 30.6326 18 30.5C18 30.3674 17.9473 30.2402 17.8536 30.1464C17.7598 30.0527 17.6326 30 17.5 30H2.6755L10.4075 21.971L14.14 25.847C14.2318 25.9423 14.3577 25.9973 14.49 26H14.5C14.6294 26 14.7538 25.9498 14.847 25.86L18.9075 21.9445L27.261 30H19.5C19.3674 30 19.2402 30.0527 19.1464 30.1464C19.0527 30.2402 19 30.3674 19 30.5C19 30.6326 19.0527 30.7598 19.1464 30.8535C19.2402 30.9473 19.3674 31 19.5 31H28.5C28.6326 31 28.7598 30.9473 28.8536 30.8535C28.9473 30.7598 29 30.6326 29 30.5V21C29 20.8674 28.9473 20.7402 28.8536 20.6464C28.7598 20.5527 28.6326 20.5 28.5 20.5Z" fill="#005897"/>
<path d="M27.4417 10.5035L18.9417 11.5035C18.8447 11.515 18.7531 11.5546 18.6784 11.6176C18.6037 11.6805 18.549 11.764 18.5212 11.8577C18.4934 11.9513 18.4936 12.0511 18.5219 12.1446C18.5501 12.2382 18.6052 12.3214 18.6802 12.384L21.5547 14.7795L22.5152 18.6215C22.5393 18.7174 22.5912 18.804 22.6644 18.8704C22.7377 18.9368 22.8289 18.9799 22.9267 18.9945C22.951 18.9983 22.9756 19.0001 23.0002 19C23.0865 19 23.1713 18.9776 23.2464 18.9351C23.3215 18.8926 23.3843 18.8314 23.4287 18.7575L27.9287 11.2575C27.9768 11.1774 28.0015 11.0853 28 10.9919C27.9985 10.8984 27.9708 10.8073 27.9201 10.7288C27.8694 10.6503 27.7977 10.5875 27.7131 10.5477C27.6286 10.5079 27.5345 10.4926 27.4417 10.5035ZM20.2142 12.3605L25.3867 11.75L22.0397 13.88L20.2142 12.3605ZM23.1927 17.208L22.5727 14.7285L25.9817 12.559L23.1927 17.208Z" fill="#005897"/>
<path d="M26 22V25C26 25.1326 26.0527 25.2598 26.1464 25.3536C26.2402 25.4473 26.3674 25.5 26.5 25.5C26.6326 25.5 26.7598 25.4473 26.8536 25.3536C26.9473 25.2598 27 25.1326 27 25V22C27 21.8674 26.9473 21.7402 26.8536 21.6464C26.7598 21.5527 26.6326 21.5 26.5 21.5C26.3674 21.5 26.2402 21.5527 26.1464 21.6464C26.0527 21.7402 26 21.8674 26 22Z" fill="#005897"/>
<path d="M14.5 13.5H10.5C10.3674 13.5 10.2402 13.5527 10.1464 13.6464C10.0527 13.7402 10 13.8674 10 14C10 14.1326 10.0527 14.2598 10.1464 14.3536C10.2402 14.4473 10.3674 14.5 10.5 14.5H14.5C14.6326 14.5 14.7598 14.4473 14.8536 14.3536C14.9473 14.2598 15 14.1326 15 14C15 13.8674 14.9473 13.7402 14.8536 13.6464C14.7598 13.5527 14.6326 13.5 14.5 13.5Z" fill="#005897"/>
</svg>
