<svg width="64" height="64" viewBox="0 0 64 64" fill="none" xmlns="http://www.w3.org/2000/svg">
<g clip-path="url(#clip0_34_210)">
<path d="M51.2813 22.4165C49.2 22.4166 47.5067 24.11 47.5067 26.1913C47.5067 28.2728 49.2001 29.966 51.2813 29.966C53.3628 29.966 55.0561 28.2726 55.0561 26.1913C55.0562 24.1099 53.3628 22.4165 51.2813 22.4165ZM51.2813 28.0886C50.2352 28.0886 49.3841 27.2375 49.3841 26.1913C49.3841 25.145 50.2352 24.2939 51.2813 24.2939C52.3275 24.2939 53.1787 25.145 53.1787 26.1913C53.1787 27.2376 52.3275 28.0886 51.2813 28.0886Z" fill="#005797"/>
<path d="M51.2814 17.8105C50.7629 17.8105 50.3426 18.2308 50.3426 18.7493C50.3426 19.2676 50.7627 19.688 51.2814 19.688C54.8672 19.688 57.7848 22.6054 57.7848 26.1913C57.7848 29.1994 55.7314 31.7362 52.953 32.4758C52.6916 32.5452 52.4265 32.5975 52.1591 32.6338C52.1396 32.6364 52.12 32.6388 52.1002 32.6413C51.9789 32.6565 51.857 32.6685 51.735 32.677C51.7215 32.678 51.7081 32.6793 51.6946 32.6802C51.4195 32.6975 51.1432 32.6975 50.868 32.6802C50.8545 32.6793 50.8411 32.678 50.8276 32.677C50.7056 32.6685 50.5837 32.6565 50.4624 32.6413C50.4427 32.6388 50.4231 32.6364 50.4035 32.6338C50.1362 32.5977 49.8709 32.5452 49.6096 32.4758C46.8312 31.736 44.778 29.1994 44.778 26.1913C44.778 24.0274 45.85 22.0113 47.6459 20.798C47.9406 20.5989 48.2539 20.4228 48.577 20.2749C49.0484 20.059 49.2555 19.5019 49.0395 19.0305C48.8236 18.5591 48.2665 18.352 47.7952 18.5679C47.3787 18.7586 46.9749 18.9855 46.595 19.2423C44.2817 20.8051 42.9006 23.4029 42.9006 26.1913C42.9006 29.8039 45.1984 32.8899 48.409 34.0649V38.0392V47.4642C48.409 53.4146 43.5681 58.2555 37.6177 58.2555C31.6673 58.2555 26.8264 53.4146 26.8264 47.4642V39.4224C31.85 38.4998 36.2782 35.1168 39.6748 29.5913C40.3547 28.4854 40.1926 27.0953 39.3691 26.173C42.7226 19.6469 44.2269 13.4894 43.3024 9.97926C42.6151 7.37063 40.2675 5.30275 36.4986 3.97324C36.4332 3.11874 35.9458 2.24787 35.0851 1.46986C34.2515 0.716238 33.1928 0.166112 32.3225 0.0342365C30.4797 -0.245014 28.7237 1.23074 28.4064 3.32387C28.2572 4.30812 28.4442 5.29012 28.9329 6.08937C29.4536 6.9405 30.2487 7.48625 31.1717 7.62613C31.343 7.652 31.5257 7.66463 31.7168 7.66463C32.4978 7.66463 33.4167 7.45338 34.2357 7.0735C34.9806 6.728 35.5597 6.2825 35.9471 5.76925C38.2492 6.59212 40.8487 8.03688 41.4864 10.4575C42.0957 12.7709 41.4542 18 37.7281 25.2593C37.3456 25.1914 36.9501 25.2004 36.561 25.2932C35.8146 25.4713 35.1823 25.9294 34.7806 26.5829C31.78 31.464 28.1373 33.9388 23.9538 33.9388C19.7701 33.9388 16.1274 31.4638 13.1268 26.5827C12.4923 25.5504 11.3059 25.0614 10.1793 25.2593C6.45303 18 5.81165 12.7709 6.42115 10.4575C7.05778 8.04063 9.64778 6.59562 11.9603 5.769C12.3478 6.28212 12.9269 6.72787 13.6719 7.07337C14.4909 7.45325 15.4098 7.6645 16.1908 7.6645C16.3818 7.6645 16.5648 7.65188 16.7359 7.626C17.659 7.48613 18.4541 6.94025 18.9747 6.08925C19.4634 5.29025 19.6504 4.30799 19.5012 3.32374C19.1842 1.23074 17.4285 -0.244889 15.5852 0.0341115C14.7148 0.165987 13.6562 0.716113 12.8225 1.46974C11.9619 2.24774 11.4745 3.11849 11.4092 3.97287C7.64015 5.30225 5.29327 7.36938 4.6059 9.97901C3.68115 13.489 5.1854 19.6464 8.53878 26.1724C7.71528 27.0947 7.55315 28.4847 8.23291 29.5907C11.6297 35.1164 16.058 38.4996 21.0817 39.4222V44.0178C21.0817 44.5362 21.5019 44.9566 22.0204 44.9566C22.5389 44.9566 22.9592 44.5363 22.9592 44.0178V38.6191C22.9592 38.1469 22.6086 37.7484 22.1406 37.6879C17.3612 37.0716 13.1053 33.9315 9.83241 28.6075C9.54666 28.1427 9.69041 27.533 10.1517 27.2439C10.1552 27.242 10.1589 27.2409 10.1624 27.239C10.1759 27.2319 10.1883 27.2235 10.2013 27.2158C10.6632 26.9619 11.2489 27.1122 11.5275 27.5657C14.8929 33.0403 19.0738 35.8162 23.9541 35.8162C28.8342 35.8162 33.015 33.0404 36.3803 27.5659C36.5193 27.3395 36.7385 27.1809 36.9968 27.1192C37.2377 27.0617 37.4856 27.096 37.7013 27.2133C37.716 27.222 37.73 27.2314 37.7453 27.2395C37.7491 27.2415 37.753 27.2428 37.7566 27.2447C38.2175 27.534 38.361 28.1433 38.0753 28.608C34.8026 33.9319 30.5467 37.0718 25.7676 37.6882C25.2994 37.7487 24.9489 38.1472 24.9489 38.6193V47.4643C24.9489 54.4498 30.6321 60.133 37.6176 60.133C44.6032 60.133 50.2862 54.4498 50.2862 47.4643V38.0393V34.5129C50.3125 34.516 50.3389 34.5183 50.3651 34.5212C50.4017 34.5252 50.4385 34.5292 50.4752 34.5327C50.5896 34.5437 50.7044 34.5526 50.8192 34.5589C50.8469 34.5604 50.8747 34.5614 50.9025 34.5627C51.0237 34.5682 51.1452 34.5717 51.2666 34.5719C51.2715 34.5719 51.2762 34.5723 51.2811 34.5723C51.286 34.5723 51.2907 34.5719 51.2956 34.5719C51.417 34.5717 51.5385 34.5682 51.6597 34.5627C51.6875 34.5614 51.7154 34.5604 51.7431 34.5589C51.8579 34.5527 51.9725 34.5438 52.087 34.5327C52.1239 34.5292 52.1606 34.5252 52.1974 34.5212C52.2236 34.5183 52.25 34.516 52.2761 34.5129V47.4641C52.2761 51.2165 50.8536 54.7887 48.2704 57.5228C47.9144 57.8997 47.9312 58.4937 48.3081 58.8498C48.4895 59.0213 48.7212 59.1062 48.9526 59.1062C49.2017 59.1062 49.4505 59.0076 49.6351 58.8121C52.5487 55.7281 54.1535 51.698 54.1535 47.464V34.0648C57.3645 32.8898 59.6623 29.8039 59.6623 26.1912C59.6623 21.5702 55.9026 17.8105 51.2814 17.8105ZM34.6222 4.26537C34.4868 5.158 32.4266 5.91775 31.4535 5.76937C31.0876 5.71387 30.7615 5.4795 30.5348 5.10912C30.2763 4.68675 30.1798 4.15249 30.2628 3.60474C30.4222 2.55312 31.2377 1.76736 32.0412 1.88999C32.4518 1.95224 33.1857 2.28299 33.8263 2.86199C34.3735 3.35687 34.6785 3.89449 34.6222 4.26537ZM14.0818 2.86224C14.7224 2.28324 15.456 1.95249 15.8669 1.89024C15.9223 1.88187 15.9778 1.87774 16.0332 1.87774C16.7807 1.87774 17.4969 2.62599 17.6454 3.60499C17.7284 4.15274 17.6319 4.687 17.3734 5.10937C17.1469 5.47975 16.8207 5.71412 16.4548 5.76962C15.481 5.91812 13.4213 5.15825 13.286 4.26562C13.2298 3.89449 13.5348 3.35687 14.0818 2.86224Z" fill="#00A5E7"/>
<path d="M47.3748 59.6602C47.0753 59.2372 46.4896 59.137 46.0663 59.4364C43.5838 61.1937 40.6625 62.1226 37.6177 62.1226C29.5349 62.1226 22.9592 55.5467 22.9592 47.4639C22.9592 46.9455 22.539 46.5251 22.0204 46.5251C21.502 46.5251 21.0817 46.9454 21.0817 47.4639C21.0817 56.582 28.4997 64.0001 37.6177 64.0001C41.0531 64.0001 44.3497 62.9518 47.151 60.9689C47.5742 60.6692 47.6745 60.0833 47.3748 59.6602Z" fill="#00A5E7"/>
</g>
<defs>
<clipPath id="clip0_34_210">
<rect width="64" height="64" fill="white"/>
</clipPath>
</defs>
</svg>
