<svg width="64" height="64" viewBox="0 0 64 64" fill="none" xmlns="http://www.w3.org/2000/svg">
<g clip-path="url(#clip0_34_190)">
<path d="M22.0266 18.0434C21.6329 17.7073 21.0411 17.7538 20.7048 18.1474L9.74251 30.9822C9.40626 31.3759 9.45276 31.9678 9.84651 32.304C10.0231 32.4549 10.2396 32.5287 10.455 32.5287C10.7198 32.5287 10.983 32.417 11.1684 32.2L22.1306 19.3653C22.4669 18.9715 22.4204 18.3797 22.0266 18.0434Z" fill="#005797"/>
<path d="M9.8325 25.5326C10.0111 25.6914 10.2335 25.7695 10.4551 25.7695C10.7136 25.7695 10.971 25.6632 11.1562 25.4549L14.1194 22.1214C14.4634 21.7342 14.4285 21.1417 14.0415 20.7976C13.6544 20.4535 13.0617 20.4886 12.7177 20.8755L9.75462 24.209C9.41062 24.596 9.4455 25.1886 9.8325 25.5326Z" fill="#005797"/>
<path d="M36.444 41.2092C36.0569 40.8651 35.4643 40.9002 35.1203 41.2871L32.1571 44.6206C31.8131 45.0076 31.848 45.6002 32.235 45.9442C32.4136 46.103 32.636 46.1811 32.8575 46.1811C33.116 46.1811 33.3734 46.0749 33.5586 45.8665L36.5218 42.533C36.8659 42.1459 36.831 41.5532 36.444 41.2092Z" fill="#005797"/>
<path d="M25.2724 59.5769C25.7902 59.5769 26.21 59.1572 26.21 58.6393C26.21 58.1214 25.7902 57.7017 25.2724 57.7017H21.0041C20.4862 57.7017 20.0665 58.1214 20.0665 58.6393C20.0665 59.1572 20.4862 59.5769 21.0041 59.5769H25.2724Z" fill="#00A5E7"/>
<path d="M59.6786 21.0831H46.2765V5.67168C46.2765 2.55168 43.7382 0.0134277 40.6181 0.0134277H5.65825C2.53825 0.0134277 0 2.55168 0 5.67168V58.3298C0 61.4498 2.53825 63.9881 5.65825 63.9881H10.1212C10.6391 63.9881 11.0589 63.5683 11.0589 63.0504C11.0589 62.5326 10.6391 62.1128 10.1212 62.1128H5.65825C3.57225 62.1128 1.87512 60.4157 1.87512 58.3297V55.1676H39.9391V59.6666C39.9391 60.5731 40.2202 61.4147 40.699 62.1103C40.672 62.1109 40.6452 62.1127 40.6181 62.1127H14.4619C13.944 62.1127 13.5242 62.5324 13.5242 63.0503C13.5242 63.5682 13.944 63.9879 14.4619 63.9879H40.6181C41.3016 63.9879 41.9557 63.8632 42.5626 63.6399C43.0841 63.8637 43.658 63.9879 44.2604 63.9879H59.6785C62.0612 63.9879 63.9999 62.0493 63.9999 59.6666V25.4044C64 23.0216 62.0615 21.0831 59.6786 21.0831ZM55.3875 22.9583L54.8039 24.1968C54.6791 24.4614 54.4095 24.6326 54.117 24.6326H49.8219C49.5292 24.6326 49.2596 24.4616 49.1349 24.1968L48.5514 22.9583H55.3875ZM1.87525 5.67168C1.87525 3.58568 3.57237 1.88855 5.65837 1.88855H40.6182C42.7042 1.88855 44.4014 3.58568 44.4014 5.67168V8.8338H1.87525V5.67168ZM59.6786 62.1128H44.2605C42.9117 62.1128 41.8144 61.0154 41.8144 59.6667V58.1636H62.1247V59.6667C62.1247 61.0154 61.0275 62.1128 59.6786 62.1128ZM62.1247 56.2883H41.8144V32.9456C41.8144 32.4277 41.3946 32.0079 40.8767 32.0079C40.3589 32.0079 39.9391 32.4277 39.9391 32.9456V53.2924H1.87525V10.7089H44.4014V21.0831H44.2605C41.8777 21.0831 39.9391 23.0217 39.9391 25.4044V28.5379C39.9391 29.0558 40.3589 29.4756 40.8767 29.4756C41.3946 29.4756 41.8144 29.0558 41.8144 28.5379V25.4044C41.8144 24.0557 42.9117 22.9583 44.2605 22.9583H46.4785L47.4386 24.9961C47.8714 25.9143 48.8069 26.5077 49.822 26.5077H54.1171C55.1322 26.5077 56.0676 25.9143 56.5004 24.9961L57.4605 22.9583H59.6786C61.0274 22.9583 62.1247 24.0557 62.1247 25.4044V56.2883Z" fill="#00A5E7"/>
</g>
<defs>
<clipPath id="clip0_34_190">
<rect width="64" height="64" fill="white"/>
</clipPath>
</defs>
</svg>
