<svg width="74" height="74" viewBox="0 0 74 74" fill="none" xmlns="http://www.w3.org/2000/svg">
<g clip-path="url(#clip0_26_142)">
<path d="M73.4666 41.4589C73.4583 41.4439 73.4511 41.4284 73.4421 41.4137C73.0927 40.8402 72.6007 40.3733 72.0229 40.0651L65.6499 36.64C66.2387 35.2512 66.5646 33.7248 66.5646 32.1238C66.5646 31.1583 66.4457 30.1984 66.211 29.2705C66.0641 28.69 65.4746 28.3382 64.8944 28.4852C64.314 28.6319 63.9625 29.2215 64.1092 29.8018C64.3 30.5562 64.3967 31.3374 64.3967 32.1237C64.3967 37.3285 60.1622 41.563 54.9573 41.563C49.7524 41.563 45.518 37.3285 45.518 32.1237C45.518 26.9188 49.7524 22.6843 54.9573 22.6843C57.6011 22.6843 60.1411 23.8041 61.926 25.7566C62.33 26.1985 63.0157 26.2292 63.4575 25.8253C63.8993 25.4215 63.9301 24.7357 63.5261 24.2938C61.3314 21.8932 58.2083 20.5164 54.9573 20.5164C48.557 20.5164 43.35 25.7234 43.35 32.1237C43.35 33.7246 43.6759 35.251 44.2647 36.6398L38.084 39.9619V20.6487L53.8723 12.5995V16.4305C53.8723 17.0291 54.3577 17.5144 54.9563 17.5144C55.555 17.5144 56.0403 17.0291 56.0403 16.4305V12.4709C56.0403 11.7641 55.8476 11.0728 55.4831 10.4719C55.1357 9.8991 54.6443 9.43154 54.0631 9.12036L38.714 0.874572C37.65 0.301939 36.3777 0.297603 35.309 0.862142C35.308 0.86272 35.3068 0.863298 35.3058 0.863876C35.2992 0.867201 35.2925 0.870814 35.2859 0.874283L19.9374 9.11979C18.8532 9.68794 17.9739 10.9879 17.9589 12.471L17.9593 31.4759L1.98022 40.0635C0.893637 40.6296 0.0141641 41.9363 0 43.4154V61.9485C0 63.3946 0.784516 64.6925 2.047 65.3355L17.3985 73.1617C18.2686 73.6051 19.5325 73.7316 20.6859 73.1617L26.3056 70.2975C26.8389 70.0257 27.0509 69.3729 26.7791 68.8395C26.507 68.306 25.8542 68.0941 25.321 68.366L20.1273 71.0131V51.594L35.916 43.5445V62.966L29.9262 66.0188C29.3929 66.2907 29.1809 66.9434 29.4527 67.4768C29.7246 68.0102 30.3773 68.222 30.9108 67.9503L37 64.8468L53.3125 73.1608C53.8151 73.4181 54.3777 73.5547 54.9407 73.5573C54.9463 73.5574 54.9517 73.5581 54.9573 73.5581C55.5249 73.5581 56.0935 73.421 56.6011 73.1618L71.9528 65.3356C73.2157 64.6923 74.0002 63.3944 74.0002 61.9484V43.4154C74 42.725 73.8149 42.0501 73.4666 41.4589ZM20.1273 31.4757L20.1269 12.5994L35.916 20.6487V39.9619L20.1273 31.4757ZM45.2952 38.5472C47.3778 41.6694 50.9307 43.731 54.9572 43.731C58.9835 43.731 62.5365 41.6694 64.6191 38.5472L70.5777 41.7496L54.9566 49.7132L39.3368 41.7497L45.2952 38.5472ZM36.304 2.78831C36.309 2.78571 36.3141 2.78296 36.3191 2.78036C36.7481 2.55243 37.2592 2.55373 37.6873 2.78397L52.6184 10.8053L37 18.7678L21.3808 10.8053L36.304 2.78831ZM19.0433 33.3543L34.6632 41.7497L19.0434 49.7132L3.42236 41.7496L19.0433 33.3543ZM17.9589 71.0138L3.03126 63.4038C2.5069 63.1367 2.16797 62.5654 2.16797 61.9485V43.5438L17.9589 51.594V71.0138ZM38.084 62.966V43.5445L53.8727 51.5942V71.0131L38.084 62.966ZM71.8321 61.9485C71.8321 62.5655 71.4931 63.1367 70.9683 63.4041L56.0412 71.014V51.594L71.8321 43.5438V61.9485Z" fill="white"/>
<path d="M58.9212 28.5714L53.4786 34.2931L50.7574 31.7719C50.3183 31.3649 49.6325 31.3912 49.2255 31.8303C48.8186 32.2694 48.8448 32.9552 49.2839 33.3622L52.7898 36.6107C52.9982 36.8038 53.2625 36.8996 53.5263 36.8996C53.8129 36.8996 54.0989 36.7866 54.312 36.5627L60.492 30.0657C60.9046 29.632 60.8874 28.9458 60.4537 28.5333C60.0201 28.1206 59.334 28.1377 58.9212 28.5714Z" fill="white"/>
</g>
<defs>
<clipPath id="clip0_26_142">
<rect width="74" height="74" fill="white"/>
</clipPath>
</defs>
</svg>
