<svg width="227" height="98" viewBox="0 0 227 98" fill="none" xmlns="http://www.w3.org/2000/svg">
<g clip-path="url(#clip0_64_380)">
<path d="M127.941 39.939H118.091V56.6752H112.98V39.939H103.152V34.8669H127.951L127.941 39.939Z" fill="white"/>
<path d="M160.304 56.6799H153.334L142.42 44.4438H155.542C156.471 44.4438 156.935 43.6938 156.935 42.1937C156.935 40.6937 156.471 39.9421 155.542 39.939H139.743V56.6752H134.632V34.867H155.816C156.719 34.8337 157.617 35.0258 158.428 35.4259C159.239 35.8259 159.938 36.4215 160.462 37.1589C161.533 38.6234 162.086 40.4032 162.033 42.217C162.086 44.0293 161.533 45.8076 160.462 47.2704C159.938 48.0084 159.24 48.6046 158.429 49.0055C157.618 49.4063 156.72 49.5993 155.816 49.567H153.864L160.304 56.6799Z" fill="white"/>
<path d="M195.836 56.6799H190.725V49.7436H177.32V44.6298H190.739V41.5986C190.739 40.4922 190.372 39.939 189.633 39.939H175.201C174.49 39.939 174.137 40.4922 174.137 41.594V56.6799H169.026V41.5847C168.991 39.8432 169.606 38.1513 170.75 36.8381C171.294 36.1942 171.978 35.6823 172.749 35.3408C173.52 34.9994 174.358 34.8374 175.201 34.867H189.633C190.482 34.8404 191.326 35.0059 192.103 35.3512C192.879 35.6966 193.568 36.2128 194.117 36.8614C195.257 38.1762 195.87 39.8674 195.836 41.6079V56.6799Z" fill="white"/>
<path d="M30.7598 72.7839C30.8342 77.0005 26.7731 80.8266 21.4668 81.3101C15.8492 81.8215 11.1051 78.4696 11.1237 73.8392C11.1423 69.2089 15.8306 65.499 21.346 65.406C26.564 65.3177 30.6669 68.6045 30.7598 72.7839Z" fill="white"/>
<path d="M50.1822 85.9545C50.3494 90.2269 46.7716 94.3738 41.9672 95.2059C36.9118 96.0846 32.5348 92.9791 32.4418 88.279C32.3489 83.5789 36.5215 79.4971 41.4932 79.0648C46.2233 78.6417 50.0288 81.7193 50.1822 85.9545Z" fill="white"/>
<path d="M87.2008 82.8349C87.461 85.9822 85.4909 88.9483 82.7123 89.455C79.8268 89.9803 77.2155 87.6698 76.9739 84.2947C76.7323 80.9195 78.9533 78.0046 81.8155 77.7071C84.5662 77.4188 86.9453 79.7108 87.2008 82.8349Z" fill="white"/>
<path d="M71.7001 88.8228C71.9649 92.9418 69.033 96.9724 64.9813 97.8325C60.7251 98.739 56.9428 95.8195 56.7291 91.3239C56.5153 86.8284 59.9119 82.8489 64.1124 82.3421C68.1176 81.8447 71.4399 84.7456 71.7001 88.8228Z" fill="white"/>
<path d="M17.7729 32.9053C17.7729 36.3036 14.1021 38.6886 9.37198 38.1911C4.4374 37.6565 0.325252 34.2442 0.390303 30.5854C0.455354 26.9267 4.60003 24.6998 9.45562 25.4716C14.1161 26.2386 17.7589 29.5394 17.7729 32.9053Z" fill="white"/>
<path d="M19.4781 53.4211C19.4781 57.317 15.4078 60.4736 10.1201 60.4411C4.57215 60.4085 -0.074349 56.9079 -5.05807e-06 52.6587C0.0743389 48.4096 4.75336 45.411 10.2223 45.8015C15.3985 46.1734 19.4549 49.5625 19.4781 53.4211Z" fill="white"/>
<path d="M26.578 16.9547C26.6244 20.0788 23.3254 22.0035 19.1064 21.2039C14.6922 20.3717 10.9936 16.9361 11.0075 13.5889C11.0215 10.2416 14.6969 8.47505 19.046 9.54896C23.2325 10.5624 26.5361 13.8539 26.578 16.9547Z" fill="white"/>
<path d="M38.9377 8.33535C39.0166 10.9109 36.4889 12.3613 33.2039 11.5385C29.8026 10.6924 26.9497 7.75888 26.8893 5.03459C26.8289 2.31031 29.6261 0.990002 32.9901 1.98953C36.2427 2.95651 38.8633 5.77843 38.9377 8.33535Z" fill="white"/>
<path d="M52.6216 5.51355C52.7192 7.61023 50.842 8.76782 48.3608 8.03328C45.8795 7.29875 43.6306 4.89524 43.5516 2.70093C43.4726 0.506621 45.5124 -0.553341 48.0401 0.283471C50.5678 1.12028 52.5054 3.42616 52.6216 5.51355Z" fill="white"/>
<path d="M65.0928 7.68923C65.1997 9.3954 63.8057 10.3391 61.9425 9.77661C60.0792 9.21409 58.3879 7.28477 58.2903 5.50887C58.1927 3.73297 59.6843 2.84967 61.5754 3.49122C63.4665 4.13278 64.9859 5.98771 65.0928 7.68923Z" fill="white"/>
<path d="M75.5381 12.4126C75.6403 13.8073 74.6088 14.593 73.2149 14.1792C72.482 13.9381 71.8318 13.4954 71.3388 12.9018C70.8457 12.3082 70.5297 11.5876 70.427 10.8226C70.3294 9.40007 71.4167 8.63299 72.8338 9.09789C73.544 9.35092 74.1714 9.79355 74.6481 10.3778C75.1248 10.9621 75.4325 11.6658 75.5381 12.4126Z" fill="white"/>
<path d="M83.4743 18.5073C83.5673 19.6184 82.8006 20.2878 81.7458 19.9996C81.184 19.8106 80.6872 19.4661 80.3131 19.0062C79.9389 18.5462 79.7026 17.9896 79.6317 17.4008C79.5434 16.2665 80.3472 15.611 81.4113 15.9317C81.9595 16.1283 82.4425 16.4731 82.8067 16.9277C83.1709 17.3824 83.402 17.9291 83.4743 18.5073Z" fill="white"/>
<path d="M89.4172 25.4204C89.4962 26.2897 88.9526 26.843 88.1487 26.657C87.727 26.5164 87.3544 26.2577 87.0752 25.9116C86.796 25.5655 86.6219 25.1466 86.5735 24.7044C86.4946 23.8211 87.08 23.2726 87.8699 23.4818C88.2845 23.6257 88.6498 23.8842 88.9237 24.2273C89.1975 24.5703 89.3686 24.984 89.4172 25.4204Z" fill="white"/>
<path d="M94.296 74.0997C94.454 75.8059 93.455 77.3121 92.0378 77.4702C90.6206 77.6283 89.2824 76.3219 89.1291 74.5507C88.9758 72.7794 90.0584 71.2964 91.4849 71.1988C92.9114 71.1011 94.1427 72.4028 94.296 74.0997Z" fill="white"/>
<path d="M60.7251 56.6845C62.1211 56.6845 63.2528 55.5522 63.2528 54.1555C63.2528 52.7587 62.1211 51.6265 60.7251 51.6265C59.3291 51.6265 58.1974 52.7587 58.1974 54.1555C58.1974 55.5522 59.3291 56.6845 60.7251 56.6845Z" fill="white"/>
<path d="M95.8805 56.6845C97.2765 56.6845 98.4082 55.5522 98.4082 54.1555C98.4082 52.7587 97.2765 51.6265 95.8805 51.6265C94.4845 51.6265 93.3528 52.7587 93.3528 54.1555C93.3528 55.5522 94.4845 56.6845 95.8805 56.6845Z" fill="white"/>
<path d="M110.587 64.918L107.636 71.7426H106.075L103.152 64.918H104.858L106.93 69.7901L109.035 64.918H110.587Z" fill="white"/>
<path d="M116.432 70.4735V71.7426H111.149V64.918H116.302V66.1871H112.719V67.6655H115.884V68.8975H112.719V70.4735H116.432Z" fill="white"/>
<path d="M123.941 64.918V71.7426H122.668L119.271 67.6004V71.7426H117.71V64.918H119.015L122.407 69.0602V64.918H123.941Z" fill="white"/>
<path d="M125.558 64.9179H128.657C129.334 64.9059 130.005 65.0506 130.618 65.341C131.164 65.6047 131.624 66.0192 131.942 66.5358C132.253 67.0827 132.416 67.7011 132.416 68.3303C132.416 68.9594 132.253 69.5778 131.942 70.1248C131.625 70.6411 131.165 71.0545 130.618 71.3149C130.007 71.609 129.335 71.7555 128.657 71.7426H125.558V64.9179ZM128.578 70.4455C129.175 70.4763 129.761 70.2709 130.209 69.8737C130.6 69.4552 130.818 68.9034 130.818 68.3303C130.818 67.7571 130.6 67.2054 130.209 66.7868C129.761 66.3896 129.175 66.1842 128.578 66.215H127.137V70.4455H128.578Z" fill="white"/>
<path d="M134.99 71.3986C134.438 71.1095 133.977 70.6735 133.656 70.1387C133.34 69.5886 133.174 68.965 133.174 68.3303C133.174 67.6955 133.34 67.072 133.656 66.5218C133.977 65.987 134.438 65.551 134.99 65.2619C135.579 64.9488 136.237 64.789 136.904 64.797C137.57 64.7873 138.227 64.9473 138.814 65.2619C139.371 65.5574 139.837 65.9992 140.163 66.5398C140.488 67.0804 140.659 67.6994 140.659 68.3303C140.659 68.9612 140.488 69.5801 140.163 70.1207C139.837 70.6613 139.371 71.1031 138.814 71.3986C138.227 71.7132 137.57 71.8732 136.904 71.8635C136.237 71.8716 135.579 71.7117 134.99 71.3986ZM137.996 70.2363C138.318 70.0529 138.584 69.7843 138.763 69.46C138.946 69.1116 139.042 68.7239 139.042 68.3303C139.042 67.9366 138.946 67.5489 138.763 67.2006C138.584 66.8762 138.318 66.6076 137.996 66.4242C137.662 66.2411 137.288 66.1451 136.907 66.1451C136.526 66.1451 136.151 66.2411 135.817 66.4242C135.495 66.6076 135.23 66.8762 135.05 67.2006C134.867 67.5489 134.772 67.9366 134.772 68.3303C134.772 68.7239 134.867 69.1116 135.05 69.46C135.23 69.7843 135.495 70.0529 135.817 70.2363C136.151 70.4194 136.526 70.5154 136.907 70.5154C137.288 70.5154 137.662 70.4194 137.996 70.2363Z" fill="white"/>
<path d="M146.17 71.7426L144.855 69.8411H143.405V71.7426H141.825V64.9179H144.776C145.316 64.9061 145.853 65.0091 146.351 65.2201C146.66 65.3673 146.935 65.5784 147.158 65.8394C147.38 66.1003 147.545 66.4054 147.642 66.7345C147.738 67.0637 147.764 67.4095 147.718 67.7494C147.672 68.0893 147.554 68.4155 147.373 68.7068C147.117 69.0826 146.757 69.3752 146.337 69.5483L147.865 71.7426H146.17ZM145.77 66.5125C145.457 66.2878 145.076 66.1793 144.692 66.2057H143.405V68.5859H144.692C145.077 68.6116 145.459 68.4996 145.77 68.2698C145.888 68.1558 145.981 68.0193 146.045 67.8683C146.109 67.7174 146.142 67.5551 146.142 67.3912C146.142 67.2272 146.109 67.0649 146.045 66.914C145.981 66.763 145.888 66.6265 145.77 66.5125Z" fill="white"/>
<path d="M157.948 71.7426V67.6469L155.941 71.0221H155.23L153.232 67.7352V71.7426H151.75V64.918H153.056L155.611 69.1578L158.125 64.918H159.417L159.44 71.7426H157.948Z" fill="white"/>
<path d="M165.536 70.2782H162.372L161.768 71.7426H160.151L163.19 64.918H164.746L167.794 71.7426H166.14L165.536 70.2782ZM165.039 69.0788L163.956 66.48L162.878 69.0881L165.039 69.0788Z" fill="white"/>
<path d="M174.759 64.918V71.7426H173.468L170.062 67.6004V71.7426H168.501V64.918H169.806L173.198 69.0602V64.918H174.759Z" fill="white"/>
<path d="M180.87 70.2782H177.701L177.101 71.7426H175.48L178.523 64.918H180.08L183.128 71.7426H181.474L180.87 70.2782ZM180.372 69.0788L179.29 66.48L178.207 69.0881L180.372 69.0788Z" fill="white"/>
<path d="M188.35 68.2233H189.791V70.9894C189.403 71.2794 188.968 71.4982 188.504 71.6357C188.028 71.783 187.533 71.8583 187.035 71.8588C186.37 71.8651 185.714 71.7053 185.126 71.3939C184.575 71.1066 184.115 70.6721 183.797 70.1387C183.48 69.5853 183.314 68.9586 183.314 68.321C183.314 67.6833 183.48 67.0566 183.797 66.5032C184.118 65.9684 184.581 65.5337 185.135 65.248C185.729 64.9337 186.392 64.7739 187.063 64.7831C187.62 64.7761 188.173 64.8788 188.69 65.0853C189.163 65.2749 189.584 65.5764 189.916 65.9639L188.903 66.8937C188.682 66.6468 188.41 66.4502 188.106 66.317C187.803 66.1839 187.474 66.1174 187.142 66.122C186.738 66.1152 186.339 66.2095 185.981 66.3963C185.65 66.5719 185.377 66.8401 185.195 67.168C185.002 67.5271 184.911 67.9322 184.931 68.3395C184.923 68.7347 185.021 69.1247 185.214 69.4692C185.396 69.7964 185.667 70.0655 185.995 70.2456C186.347 70.436 186.742 70.532 187.142 70.5246C187.569 70.5314 187.991 70.4307 188.369 70.2317L188.35 68.2233Z" fill="white"/>
<path d="M196.547 70.4735V71.7426H191.254V64.918H196.407V66.1871H192.83V67.6655H195.999V68.8975H192.83V70.4735H196.547Z" fill="white"/>
<path d="M203.981 71.7426V67.6469L201.974 71.0221H201.263L199.265 67.7352V71.7426H197.783V64.918H199.089L201.644 69.1578L204.158 64.918H205.45L205.473 71.7426H203.981Z" fill="white"/>
<path d="M212.373 70.4735V71.7426H207.094V64.918H212.247V66.1871H208.66V67.6655H211.825V68.8975H208.66V70.4735H212.373Z" fill="white"/>
<path d="M219.882 64.918V71.7426H218.585L215.189 67.6004V71.7426H213.627V64.918H214.933L218.325 69.0602V64.918H219.882Z" fill="white"/>
<path d="M222.911 66.2057H220.732V64.918H226.675V66.2057H224.491V71.7426H222.911V66.2057Z" fill="white"/>
<path d="M104.709 82.9465C104.272 82.8336 103.861 82.6397 103.496 82.3747L104.03 81.1846C104.346 81.414 104.698 81.5885 105.071 81.7006C105.461 81.8287 105.869 81.8946 106.279 81.8959C106.623 81.9201 106.966 81.851 107.274 81.6959C107.371 81.6456 107.452 81.5695 107.508 81.476C107.565 81.3825 107.595 81.2752 107.594 81.166C107.596 81.0884 107.58 81.0113 107.547 80.9411C107.514 80.8709 107.465 80.8094 107.404 80.7615C107.259 80.6453 107.094 80.5584 106.916 80.5058C106.721 80.4407 106.451 80.3663 106.117 80.2873C105.684 80.1906 105.257 80.0679 104.839 79.9201C104.508 79.7968 104.214 79.5922 103.984 79.325C103.736 79.0167 103.61 78.6277 103.631 78.2325C103.628 77.849 103.739 77.4733 103.951 77.1539C104.194 76.8101 104.531 76.545 104.923 76.3915C105.424 76.1885 105.962 76.0919 106.502 76.1079C106.933 76.1065 107.363 76.1596 107.78 76.266C108.167 76.3614 108.535 76.5184 108.872 76.7309L108.384 77.9303C107.812 77.5891 107.159 77.4047 106.493 77.3957C106.154 77.3704 105.815 77.4447 105.517 77.6095C105.419 77.6668 105.338 77.7489 105.282 77.8477C105.225 77.9465 105.196 78.0583 105.197 78.172C105.197 78.2866 105.233 78.3983 105.298 78.4921C105.364 78.586 105.456 78.6576 105.564 78.6974C105.924 78.8448 106.297 78.9569 106.679 79.0321C107.112 79.1295 107.538 79.2521 107.957 79.3994C108.283 79.5227 108.575 79.7237 108.807 79.9851C109.057 80.2888 109.185 80.6752 109.165 81.0683C109.167 81.4502 109.052 81.8235 108.835 82.1376C108.591 82.4815 108.252 82.7466 107.859 82.9C107.354 83.1025 106.814 83.199 106.27 83.1836C105.741 83.1783 105.216 83.0985 104.709 82.9465Z" fill="white"/>
<path d="M111.632 82.7048C111.08 82.4157 110.619 81.9798 110.299 81.4449C109.982 80.8948 109.816 80.2712 109.816 79.6365C109.816 79.0018 109.982 78.3782 110.299 77.828C110.619 77.2932 111.08 76.8572 111.632 76.5682C112.224 76.2639 112.879 76.1052 113.544 76.1052C114.209 76.1052 114.865 76.2639 115.456 76.5682C116.012 76.8648 116.477 77.3069 116.801 77.8474C117.125 78.3878 117.296 79.0062 117.296 79.6365C117.296 80.2668 117.125 80.8852 116.801 81.4256C116.477 81.966 116.012 82.4082 115.456 82.7048C114.865 83.009 114.209 83.1678 113.544 83.1678C112.879 83.1678 112.224 83.009 111.632 82.7048ZM114.638 81.5426C114.96 81.3602 115.224 81.0912 115.4 80.7662C115.584 80.4178 115.679 80.0301 115.679 79.6365C115.679 79.2429 115.584 78.8552 115.4 78.5068C115.224 78.1817 114.96 77.9127 114.638 77.7304C114.304 77.5473 113.928 77.4513 113.546 77.4513C113.165 77.4513 112.789 77.5473 112.455 77.7304C112.134 77.9141 111.87 78.1828 111.693 78.5068C111.509 78.8552 111.414 79.2429 111.414 79.6365C111.414 80.0301 111.509 80.4178 111.693 80.7662C111.868 81.089 112.128 81.3575 112.445 81.5426C112.78 81.7257 113.156 81.8216 113.537 81.8216C113.919 81.8216 114.294 81.7257 114.629 81.5426H114.638Z" fill="white"/>
<path d="M118.486 76.2427H120.065V81.7796H123.481V83.0673H118.486V76.2427Z" fill="white"/>
<path d="M125.019 82.3561C124.732 82.0444 124.512 81.6775 124.372 81.2778C124.233 80.8781 124.176 80.454 124.206 80.0316V76.2427H125.781V80.0083C125.781 81.2264 126.287 81.84 127.3 81.84C127.512 81.852 127.723 81.8165 127.92 81.736C128.116 81.6556 128.291 81.5323 128.434 81.3751C128.725 80.9715 128.862 80.4765 128.819 79.9804V76.2427H130.381V80.0641C130.409 80.4865 130.352 80.9102 130.212 81.3098C130.073 81.7093 129.853 82.0763 129.568 82.3886C128.925 82.9115 128.122 83.1969 127.293 83.1969C126.465 83.1969 125.661 82.9115 125.019 82.3886V82.3561Z" fill="white"/>
<path d="M133.234 77.5118H131.054V76.2427H136.993V77.5304H134.813V83.0673H133.234V77.5118Z" fill="white"/>
<path d="M137.843 76.2427H139.418V83.0673H137.843V76.2427Z" fill="white"/>
<path d="M142.424 82.7048C141.872 82.4157 141.411 81.9798 141.091 81.4449C140.775 80.8948 140.608 80.2712 140.608 79.6365C140.608 79.0018 140.775 78.3782 141.091 77.828C141.411 77.2932 141.872 76.8572 142.424 76.5682C143.016 76.2639 143.671 76.1052 144.336 76.1052C145.002 76.1052 145.657 76.2639 146.249 76.5682C146.804 76.8648 147.269 77.3069 147.593 77.8474C147.917 78.3878 148.089 79.0062 148.089 79.6365C148.089 80.2668 147.917 80.8852 147.593 81.4256C147.269 81.966 146.804 82.4082 146.249 82.7048C145.657 83.009 145.002 83.1678 144.336 83.1678C143.671 83.1678 143.016 83.009 142.424 82.7048ZM145.431 81.5426C145.753 81.3591 146.018 81.0905 146.197 80.7662C146.378 80.4169 146.471 80.0295 146.471 79.6365C146.471 79.2434 146.378 78.8561 146.197 78.5068C146.019 78.1831 145.756 77.9145 145.435 77.7304C145.101 77.5473 144.725 77.4513 144.343 77.4513C143.962 77.4513 143.586 77.5473 143.252 77.7304C142.931 77.9141 142.667 78.1828 142.489 78.5068C142.306 78.8552 142.211 79.2429 142.211 79.6365C142.211 80.0301 142.306 80.4178 142.489 80.7662C142.667 81.0902 142.931 81.3589 143.252 81.5426C143.586 81.7257 143.962 81.8216 144.343 81.8216C144.725 81.8216 145.101 81.7257 145.435 81.5426H145.431Z" fill="white"/>
<path d="M155.514 76.2427V83.0673H154.217L150.816 78.9251V83.0673H149.259V76.2427H150.547L153.934 80.3849V76.2427H155.514Z" fill="white"/>
<path d="M157.804 82.9465C157.37 82.8328 156.96 82.6388 156.596 82.3747L157.131 81.1845C157.445 81.4149 157.798 81.5895 158.171 81.7006C158.561 81.8286 158.969 81.8945 159.38 81.8958C159.723 81.9201 160.066 81.851 160.374 81.6959C160.471 81.6455 160.552 81.5694 160.609 81.476C160.665 81.3825 160.695 81.2752 160.694 81.1659C160.696 81.0883 160.68 81.0113 160.647 80.9411C160.614 80.8708 160.565 80.8093 160.504 80.7615C160.36 80.6452 160.194 80.5584 160.016 80.5058C159.821 80.4407 159.551 80.3663 159.212 80.2873C158.781 80.19 158.356 80.0673 157.939 79.92C157.609 79.7968 157.315 79.5921 157.084 79.3249C156.836 79.0166 156.71 78.6277 156.731 78.2324C156.732 77.8553 156.843 77.4866 157.052 77.1725C157.294 76.8287 157.631 76.5636 158.023 76.41C158.524 76.207 159.062 76.1105 159.603 76.1265C160.033 76.1251 160.463 76.1782 160.88 76.2845C161.267 76.38 161.636 76.537 161.972 76.7494L161.508 77.9489C160.935 77.6077 160.283 77.4233 159.616 77.4142C159.276 77.3897 158.936 77.4639 158.636 77.6281C158.539 77.6863 158.459 77.7688 158.404 77.8674C158.348 77.966 158.319 78.0774 158.32 78.1906C158.321 78.3051 158.356 78.4168 158.422 78.5107C158.487 78.6046 158.58 78.6762 158.687 78.7159C159.047 78.864 159.421 78.9761 159.802 79.0507C160.235 79.148 160.662 79.2707 161.08 79.4179C161.407 79.5412 161.699 79.7423 161.93 80.0037C162.181 80.3074 162.308 80.6938 162.288 81.0869C162.291 81.4688 162.175 81.8421 161.958 82.1562C161.714 82.5001 161.375 82.7651 160.983 82.9186C160.478 83.1211 159.937 83.2176 159.393 83.2022C158.854 83.1927 158.319 83.1067 157.804 82.9465Z" fill="white"/>
<path d="M55.5953 49.767C55.6191 50.6885 55.448 51.6047 55.0932 52.4556C54.7385 53.3064 54.2082 54.0726 53.5369 54.7042C52.8769 55.3471 52.096 55.8528 51.2395 56.1919C50.3829 56.5311 49.4676 56.6969 48.5466 56.68H35.871C34.9491 56.6976 34.033 56.532 33.1756 56.1928C32.3182 55.8537 31.5366 55.3477 30.876 54.7042C30.203 54.0735 29.671 53.3076 29.3146 52.4567C28.9583 51.6059 28.7857 50.6892 28.8083 49.767V41.7522C28.7854 40.8307 28.9569 39.9148 29.3116 39.0641C29.6663 38.2134 30.1961 37.447 30.8667 36.815C31.5306 36.1754 32.3148 35.6739 33.1738 35.3395C34.0328 35.0051 34.9495 34.8446 35.871 34.8671H48.5466C49.4675 34.8479 50.383 35.0124 51.2398 35.3508C52.0966 35.6892 52.8774 36.1948 53.5369 36.8382C54.2075 37.4703 54.7373 38.2366 55.092 39.0873C55.4467 39.938 55.6182 40.854 55.5953 41.7754V49.767ZM50.5585 49.767V41.7615C50.5585 40.5465 49.8879 39.9391 48.5466 39.9391H35.871C34.5297 39.9391 33.8575 40.5465 33.8544 41.7615V49.7437C33.8544 50.9618 34.5281 51.5661 35.871 51.5661H48.5466C49.8894 51.6033 50.5585 50.9757 50.5585 49.7437V49.767Z" fill="white"/>
<path d="M91.1829 56.6799H84.3014L73.5169 44.4439H86.4852C87.4145 44.4439 87.8792 43.6954 87.8792 42.1938C87.8792 40.6922 87.4145 39.939 86.4852 39.939H70.873V56.6753H65.8362V34.867H86.778C87.6705 34.8383 88.5561 35.0329 89.3544 35.4331C90.1528 35.8333 90.8388 36.4265 91.3501 37.159C92.4158 38.6177 92.9711 40.3874 92.9299 42.1938C92.9823 44.0039 92.435 45.7806 91.3734 47.2472C90.862 47.9797 90.1761 48.5729 89.3777 48.9731C88.5793 49.3733 87.6937 49.5679 86.8012 49.5391H84.8729L91.1829 56.6799Z" fill="white"/>
<path d="M217.921 45.6107L209.116 34.8669H202.532L211.36 45.6339L202.299 56.6984H208.841L217.921 45.6107ZM220.179 34.8669L216.713 39.13L217.465 40.0598L219.961 43.1188L226.721 34.8669H220.179ZM219.961 48.1537L217.456 51.2313L216.703 52.1611L220.448 56.6798H227.014L219.961 48.1537Z" fill="white"/>
</g>
<defs>
<clipPath id="clip0_64_380">
<rect width="227" height="98" fill="white"/>
</clipPath>
</defs>
</svg>
