<svg xmlns="http://www.w3.org/2000/svg" viewBox="0 0 488.54 210.8"><defs><style>.cls-1{fill:#005897;}.cls-2{fill:#00589f;}.cls-3{fill:#00a3e6;}</style></defs><g id="Layer_2" data-name="Layer 2"><g id="Layer_1-2" data-name="Layer 1"><path class="cls-1" d="M275.35,85.91h-21.2v36h-11v-36H222V75h53.37Z"/><path class="cls-1" d="M345,121.92H330L306.51,95.6h28.24q3,0,3-4.84t-3-4.85h-34v36h-11V75h45.59a11.74,11.74,0,0,1,10,4.93,17.56,17.56,0,0,1,3.38,10.88,17.53,17.53,0,0,1-3.38,10.87,11.75,11.75,0,0,1-10,4.94h-4.2Z"/><path class="cls-1" d="M421.47,121.92h-11V107H381.62v-11H410.5V89.48c0-2.38-.79-3.57-2.38-3.57H377.06c-1.53,0-2.29,1.19-2.29,3.56v32.45h-11V89.45a15.09,15.09,0,0,1,3.71-10.21A12,12,0,0,1,377.06,75h31.06a12.15,12.15,0,0,1,9.65,4.29,15.13,15.13,0,0,1,3.7,10.21Z"/><path class="cls-2" d="M66.2,156.56c.16,9.07-8.58,17.3-20,18.34C34.11,176,23.9,168.79,23.94,158.83s10.13-17.94,22-18.14C57.17,140.5,66,147.57,66.2,156.56Z"/><path class="cls-2" d="M108,184.89c.36,9.19-7.34,18.11-17.68,19.9-10.88,1.89-20.3-4.79-20.5-14.9S78.6,171,89.3,170.07C99.48,169.16,107.67,175.78,108,184.89Z"/><path class="cls-2" d="M187.67,178.18c.56,6.77-3.68,13.15-9.66,14.24-6.21,1.13-11.83-3.84-12.35-11.1s4.26-13.53,10.42-14.17C182,166.53,187.12,171.46,187.67,178.18Z"/><path class="cls-2" d="M154.31,191.06c.57,8.86-5.74,17.53-14.46,19.38-9.16,1.95-17.3-4.33-17.76-14s6.85-18.23,15.89-19.32C146.6,176.05,153.75,182.29,154.31,191.06Z"/><path class="cls-2" d="M38.25,70.78c0,7.31-7.9,12.44-18.08,11.37C9.55,81,.7,73.66.84,65.79s9.06-12.66,19.51-11C30.38,56.44,38.22,63.54,38.25,70.78Z"/><path class="cls-2" d="M41.92,114.91c0,8.38-8.76,15.17-20.14,15.1C9.84,129.94-.16,122.41,0,113.27S10.23,97.68,22,98.52C33.14,99.32,41.87,106.61,41.92,114.91Z"/><path class="cls-2" d="M57.2,36.47c.1,6.72-7,10.86-16.08,9.14-9.5-1.79-17.46-9.18-17.43-16.38s7.94-11,17.3-8.69C50,22.72,57.11,29.8,57.2,36.47Z"/><path class="cls-2" d="M83.8,17.93c.17,5.54-5.27,8.66-12.34,6.89C64.14,23,58,16.69,57.87,10.83S63.76,2.13,71,4.28C78,6.36,83.64,12.43,83.8,17.93Z"/><path class="cls-2" d="M113.25,11.86c.21,4.51-3.83,7-9.17,5.42S93.9,10.53,93.73,5.81s4.22-7,9.66-5.2S113,7.37,113.25,11.86Z"/><path class="cls-2" d="M140.09,16.54c.23,3.67-2.77,5.7-6.78,4.49s-7.65-5.36-7.86-9.18,3-5.72,7.07-4.34S139.86,12.88,140.09,16.54Z"/><path class="cls-2" d="M162.57,26.7c.22,3-2,4.69-5,3.8a8.84,8.84,0,0,1-6-7.22c-.21-3.06,2.13-4.71,5.18-3.71A8.89,8.89,0,0,1,162.57,26.7Z"/><path class="cls-2" d="M179.65,39.81c.2,2.39-1.45,3.83-3.72,3.21a6.75,6.75,0,0,1-4.55-5.59c-.19-2.44,1.54-3.85,3.83-3.16A6.78,6.78,0,0,1,179.65,39.81Z"/><path class="cls-2" d="M192.44,54.68c.17,1.87-1,3.06-2.73,2.66a5,5,0,0,1-3.39-4.2c-.17-1.9,1.09-3.08,2.79-2.63A5,5,0,0,1,192.44,54.68Z"/><path class="cls-2" d="M202.94,159.39c.34,3.67-1.81,6.91-4.86,7.25s-5.93-2.47-6.26-6.28,2-7,5.07-7.21S202.61,155.74,202.94,159.39Z"/><circle class="cls-2" cx="130.69" cy="116.49" r="5.44"/><circle class="cls-2" cx="206.35" cy="116.49" r="5.44"/><path class="cls-1" d="M238,139.64l-6.35,14.68h-3.36L222,139.64h3.67l4.46,10.48,4.53-10.48Z"/><path class="cls-1" d="M250.58,151.59v2.73H239.21V139.64H250.3v2.73h-7.71v3.18h6.81v2.65h-6.81v3.39Z"/><path class="cls-1" d="M266.74,139.64v14.68H264l-7.31-8.91v8.91h-3.36V139.64h2.81l7.3,8.91v-8.91Z"/><path class="cls-1" d="M270.22,139.64h6.67a9.46,9.46,0,0,1,4.22.91,6.84,6.84,0,0,1,2.85,2.57,7.81,7.81,0,0,1,0,7.72,6.75,6.75,0,0,1-2.85,2.56,9.33,9.33,0,0,1-4.22.92h-6.67Zm6.5,11.89a4.91,4.91,0,0,0,3.51-1.23,4.86,4.86,0,0,0,0-6.64,4.91,4.91,0,0,0-3.51-1.23h-3.1v9.1Z"/><path class="cls-1" d="M290.52,153.58a7.28,7.28,0,0,1-2.87-2.71,7.8,7.8,0,0,1,0-7.78,7.28,7.28,0,0,1,2.87-2.71,8.56,8.56,0,0,1,4.12-1,8.44,8.44,0,0,1,4.11,1,7.47,7.47,0,0,1,0,13.2,8.44,8.44,0,0,1-4.11,1A8.56,8.56,0,0,1,290.52,153.58Zm6.47-2.5a4.34,4.34,0,0,0,1.65-1.67,5.22,5.22,0,0,0,0-4.86,4.34,4.34,0,0,0-1.65-1.67,4.88,4.88,0,0,0-4.69,0,4.34,4.34,0,0,0-1.65,1.67,5.22,5.22,0,0,0,0,4.86,4.34,4.34,0,0,0,1.65,1.67,4.88,4.88,0,0,0,4.69,0Z"/><path class="cls-1" d="M314.58,154.32l-2.83-4.09h-3.12v4.09h-3.4V139.64h6.35a8.23,8.23,0,0,1,3.39.65,5.24,5.24,0,0,1,2.2,7.5,5,5,0,0,1-2.23,1.81l3.29,4.72Zm-.86-11.25a3.56,3.56,0,0,0-2.32-.66h-2.77v5.12h2.77a3.51,3.51,0,0,0,2.32-.68,2.63,2.63,0,0,0,0-3.78Z"/><path class="cls-1" d="M339.93,154.32l0-8.81-4.32,7.26h-1.53l-4.3-7.07v8.62h-3.19V139.64h2.81l5.5,9.12,5.41-9.12h2.78l.05,14.68Z"/><path class="cls-1" d="M356.26,151.17h-6.81l-1.3,3.15h-3.48l6.54-14.68h3.35l6.56,14.68h-3.56Zm-1.07-2.58L352.86,143l-2.32,5.61Z"/><path class="cls-1" d="M376.11,139.64v14.68h-2.78L366,145.41v8.91h-3.36V139.64h2.81l7.3,8.91v-8.91Z"/><path class="cls-1" d="M389.26,151.17h-6.82l-1.29,3.15h-3.49l6.55-14.68h3.35l6.56,14.68h-3.56Zm-1.07-2.58L385.86,143l-2.33,5.61Z"/><path class="cls-1" d="M405.36,146.75h3.1v5.95a8.79,8.79,0,0,1-2.77,1.39,10.72,10.72,0,0,1-3.16.48,8.61,8.61,0,0,1-4.11-1,7.22,7.22,0,0,1-2.86-2.7,7.87,7.87,0,0,1,0-7.82,7.21,7.21,0,0,1,2.88-2.7,8.62,8.62,0,0,1,4.15-1,9.13,9.13,0,0,1,3.5.65,6.81,6.81,0,0,1,2.64,1.89l-2.18,2a5,5,0,0,0-3.79-1.66,5.22,5.22,0,0,0-2.5.59,4.16,4.16,0,0,0-1.69,1.66A4.82,4.82,0,0,0,398,147a4.77,4.77,0,0,0,.61,2.43,4.28,4.28,0,0,0,1.68,1.67,5,5,0,0,0,2.47.6,5.48,5.48,0,0,0,2.64-.63Z"/><path class="cls-1" d="M423,151.59v2.73H411.61V139.64H422.7v2.73H415v3.18h6.82v2.65H415v3.39Z"/><path class="cls-1" d="M439,154.32l0-8.81-4.32,7.26h-1.53l-4.3-7.07v8.62h-3.19V139.64h2.81l5.5,9.12,5.41-9.12h2.78l.05,14.68Z"/><path class="cls-1" d="M457.06,151.59v2.73H445.7V139.64h11.09v2.73h-7.72v3.18h6.81v2.65h-6.81v3.39Z"/><path class="cls-1" d="M473.22,139.64v14.68h-2.79l-7.31-8.91v8.91h-3.36V139.64h2.81l7.3,8.91v-8.91Z"/><path class="cls-1" d="M479.74,142.41h-4.69v-2.77h12.79v2.77h-4.7v11.91h-3.4Z"/><path class="cls-1" d="M225.35,178.42a7.74,7.74,0,0,1-2.61-1.23l1.15-2.56a7.45,7.45,0,0,0,2.24,1.11,8.42,8.42,0,0,0,2.6.42,4.11,4.11,0,0,0,2.14-.43,1.28,1.28,0,0,0,.69-1.14,1.07,1.07,0,0,0-.41-.87,3.06,3.06,0,0,0-1.05-.55c-.42-.14-1-.3-1.72-.47a23.87,23.87,0,0,1-2.75-.79,4.51,4.51,0,0,1-1.84-1.28,3.46,3.46,0,0,1-.76-2.35,4.13,4.13,0,0,1,.69-2.32,4.62,4.62,0,0,1,2.09-1.64,8.4,8.4,0,0,1,3.4-.61,11,11,0,0,1,2.75.34,8,8,0,0,1,2.35,1l-1.05,2.58a8.17,8.17,0,0,0-4.07-1.15,3.76,3.76,0,0,0-2.1.46,1.39,1.39,0,0,0-.69,1.21,1.21,1.21,0,0,0,.79,1.13,12.94,12.94,0,0,0,2.4.72,24.48,24.48,0,0,1,2.75.79,4.63,4.63,0,0,1,1.83,1.26,3.39,3.39,0,0,1,.77,2.33,4,4,0,0,1-.71,2.3,4.65,4.65,0,0,1-2.1,1.64,8.54,8.54,0,0,1-3.42.61A12.12,12.12,0,0,1,225.35,178.42Z"/><path class="cls-1" d="M240.25,177.9a7.28,7.28,0,0,1-2.87-2.71,7.8,7.8,0,0,1,0-7.78,7.28,7.28,0,0,1,2.87-2.71,9,9,0,0,1,8.23,0,7.48,7.48,0,0,1,0,13.2,9,9,0,0,1-8.23,0Zm6.47-2.5a4.25,4.25,0,0,0,1.64-1.67,5.22,5.22,0,0,0,0-4.86,4.25,4.25,0,0,0-1.64-1.67,4.9,4.9,0,0,0-4.7,0,4.32,4.32,0,0,0-1.64,1.67,5.22,5.22,0,0,0,0,4.86A4.32,4.32,0,0,0,242,175.4a4.9,4.9,0,0,0,4.7,0Z"/><path class="cls-1" d="M255,164h3.4v11.91h7.35v2.77H255Z"/><path class="cls-1" d="M269.06,177.15a6.69,6.69,0,0,1-1.75-5V164h3.39v8.1c0,2.62,1.09,3.94,3.27,3.94a3.06,3.06,0,0,0,2.44-1,4.47,4.47,0,0,0,.83-3V164h3.36v8.22a6.73,6.73,0,0,1-1.75,5,7.76,7.76,0,0,1-9.79,0Z"/><path class="cls-1" d="M286.74,166.73h-4.69V164h12.78v2.77h-4.69v11.91h-3.4Z"/><path class="cls-1" d="M296.66,164h3.39v14.68h-3.39Z"/><path class="cls-1" d="M306.52,177.9a7.28,7.28,0,0,1-2.87-2.71,7.8,7.8,0,0,1,0-7.78,7.28,7.28,0,0,1,2.87-2.71,9,9,0,0,1,8.23,0,7.48,7.48,0,0,1,0,13.2,9,9,0,0,1-8.23,0Zm6.47-2.5a4.34,4.34,0,0,0,1.65-1.67,5.3,5.3,0,0,0,0-4.86A4.34,4.34,0,0,0,313,167.2a4.9,4.9,0,0,0-4.7,0,4.32,4.32,0,0,0-1.64,1.67,5.22,5.22,0,0,0,0,4.86,4.32,4.32,0,0,0,1.64,1.67,4.9,4.9,0,0,0,4.7,0Z"/><path class="cls-1" d="M334.69,164v14.68H331.9l-7.32-8.91v8.91h-3.35V164H324l7.29,8.91V164Z"/><path class="cls-1" d="M339.62,178.42a7.77,7.77,0,0,1-2.6-1.23l1.15-2.56a7.33,7.33,0,0,0,2.24,1.11,8.42,8.42,0,0,0,2.6.42,4.11,4.11,0,0,0,2.14-.43,1.28,1.28,0,0,0,.69-1.14,1.07,1.07,0,0,0-.41-.87,3.06,3.06,0,0,0-1.05-.55c-.42-.14-1-.3-1.73-.47a24.23,24.23,0,0,1-2.74-.79,4.51,4.51,0,0,1-1.84-1.28,3.46,3.46,0,0,1-.76-2.35A4.13,4.13,0,0,1,338,166a4.62,4.62,0,0,1,2.09-1.64,8.4,8.4,0,0,1,3.4-.61,11,11,0,0,1,2.75.34,8,8,0,0,1,2.35,1l-1,2.58a8.17,8.17,0,0,0-4.07-1.15,3.82,3.82,0,0,0-2.11.46,1.4,1.4,0,0,0-.68,1.21,1.21,1.21,0,0,0,.79,1.13,12.7,12.7,0,0,0,2.4.72,24.48,24.48,0,0,1,2.75.79,4.63,4.63,0,0,1,1.83,1.26,3.39,3.39,0,0,1,.77,2.33,4,4,0,0,1-.71,2.3,4.65,4.65,0,0,1-2.1,1.64,8.54,8.54,0,0,1-3.42.61A12.24,12.24,0,0,1,339.62,178.42Z"/><path class="cls-3" d="M119.65,107.05a14.08,14.08,0,0,1-4.43,10.62,15,15,0,0,1-10.74,4.25H77.2a15,15,0,0,1-10.75-4.25A14.08,14.08,0,0,1,62,107.05V89.81a14.11,14.11,0,0,1,4.43-10.62A15,15,0,0,1,77.2,75h27.28a14.94,14.94,0,0,1,10.74,4.24,14.11,14.11,0,0,1,4.43,10.62Zm-10.84,0V89.83q0-3.92-4.33-3.92H77.2q-4.33,0-4.34,3.92V107c0,2.62,1.45,3.92,4.34,3.92h27.28C107.37,111,108.81,109.65,108.81,107Z"/><path class="cls-3" d="M196.24,121.92H181.43L158.22,95.6h27.91c2,0,3-1.61,3-4.84s-1-4.85-3-4.85h-33.6v36H141.69V75h45.07a11.55,11.55,0,0,1,9.84,4.93A17.67,17.67,0,0,1,200,90.76a17.66,17.66,0,0,1-3.35,10.87,11.55,11.55,0,0,1-9.84,4.93h-4.15Z"/><path class="cls-1" d="M469,98.11,450.05,75H435.88l19,23.16-19.5,23.8h14.08ZM473.86,75l-7.46,9.17,1.62,2,5.37,6.58L487.94,75Zm-.47,28.58L468,110.2l-1.62,2,8.06,9.72h14.13Z"/></g></g></svg>