<svg width="32" height="32" viewBox="0 0 32 32" fill="none" xmlns="http://www.w3.org/2000/svg">
<path d="M30.5 20.5C30.3674 20.5 30.2402 20.5527 30.1464 20.6464C30.0527 20.7402 30 20.8674 30 21V28.5C30 28.8978 29.842 29.2794 29.5607 29.5607C29.2794 29.842 28.8978 30 28.5 30H3.5C3.10218 30 2.72064 29.842 2.43934 29.5607C2.15804 29.2794 2 28.8978 2 28.5V10.5C2 10.1022 2.15804 9.72064 2.43934 9.43934C2.72064 9.15804 3.10218 9 3.5 9H3.507C3.52352 9.77221 3.70976 10.5313 4.0525 11.2235C4.34607 11.8119 4.49925 12.4604 4.5 13.118V19.882C4.49925 20.5396 4.34607 21.1881 4.0525 21.7765C3.69009 22.5039 3.50099 23.3053 3.5 24.118V26C3.50079 26.6628 3.76444 27.2982 4.23311 27.7669C4.70178 28.2356 5.3372 28.4992 6 28.5C6.13261 28.5 6.25979 28.4473 6.35355 28.3536C6.44732 28.2598 6.5 28.1326 6.5 28C6.5 27.8674 6.44732 27.7402 6.35355 27.6464C6.25979 27.5527 6.13261 27.5 6 27.5C5.60218 27.5 5.22064 27.342 4.93934 27.0607C4.65804 26.7794 4.5 26.3978 4.5 26V24.118C4.50153 23.4602 4.65556 22.8117 4.95 22.2235C5.31154 21.4959 5.49979 20.6945 5.5 19.882V13.118C5.49979 12.3055 5.31154 11.5041 4.95 10.7765C4.65556 10.1883 4.50153 9.5398 4.5 8.882V7C4.5 6.60218 4.65804 6.22064 4.93934 5.93934C5.22064 5.65804 5.60218 5.5 6 5.5H11C11.3978 5.5 11.7794 5.65804 12.0607 5.93934C12.342 6.22064 12.5 6.60218 12.5 7V8.882C12.4992 9.5396 12.3461 10.1881 12.0525 10.7765C11.6901 11.5039 11.501 12.3053 11.5 13.118C11.5 13.2506 11.5527 13.3778 11.6464 13.4716C11.7402 13.5653 11.8674 13.618 12 13.618C12.1326 13.618 12.2598 13.5653 12.3536 13.4716C12.4473 13.3778 12.5 13.2506 12.5 13.118C12.5008 12.4604 12.6539 11.8119 12.9475 11.2235C13.3099 10.4961 13.499 9.69468 13.5 8.882V7C13.4992 6.3372 13.2356 5.70178 12.7669 5.23311C12.2982 4.76444 11.6628 4.50079 11 4.5H6C5.3372 4.50079 4.70178 4.76444 4.23311 5.23311C3.76444 5.70178 3.50079 6.3372 3.5 7V8C2.8372 8.00079 2.20178 8.26444 1.73311 8.73311C1.26444 9.20178 1.00079 9.8372 1 10.5V28.5C1.00079 29.1628 1.26444 29.7982 1.73311 30.2669C2.20178 30.7356 2.8372 30.9992 3.5 31H28.5C29.1628 30.9992 29.7982 30.7356 30.2669 30.2669C30.7356 29.7982 30.9992 29.1628 31 28.5V21C31 20.8674 30.9473 20.7402 30.8536 20.6464C30.7598 20.5527 30.6326 20.5 30.5 20.5Z" fill="#005897"/>
<path d="M28.5 8H15C14.8674 8 14.7402 8.05268 14.6464 8.14645C14.5527 8.24021 14.5 8.36739 14.5 8.5C14.5 8.63261 14.5527 8.75979 14.6464 8.85355C14.7402 8.94732 14.8674 9 15 9H28.5C28.8978 9 29.2794 9.15804 29.5607 9.43934C29.842 9.72064 30 10.1022 30 10.5V19C30 19.1326 30.0527 19.2598 30.1464 19.3536C30.2402 19.4473 30.3674 19.5 30.5 19.5C30.6326 19.5 30.7598 19.4473 30.8536 19.3536C30.9473 19.2598 31 19.1326 31 19V10.5C30.9992 9.8372 30.7356 9.20178 30.2669 8.73311C29.7982 8.26444 29.1628 8.00079 28.5 8Z" fill="#005897"/>
<path d="M8 28.5H11C11.6628 28.4992 12.2982 28.2356 12.7669 27.7669C13.2356 27.2982 13.4992 26.6628 13.5 26V24.118C13.4998 23.3055 13.3115 22.5041 12.95 21.7765C12.6556 21.1883 12.5015 20.5398 12.5 19.882V15C12.5 14.8674 12.4473 14.7402 12.3536 14.6464C12.2598 14.5527 12.1326 14.5 12 14.5C11.8674 14.5 11.7402 14.5527 11.6464 14.6464C11.5527 14.7402 11.5 14.8674 11.5 15V19.882C11.501 20.6947 11.6901 21.4961 12.0525 22.2235C12.3461 22.8119 12.4992 23.4604 12.5 24.118V26C12.5 26.3978 12.342 26.7794 12.0607 27.0607C11.7794 27.342 11.3978 27.5 11 27.5H8C7.86739 27.5 7.74021 27.5527 7.64645 27.6464C7.55268 27.7402 7.5 27.8674 7.5 28C7.5 28.1326 7.55268 28.2598 7.64645 28.3536C7.74021 28.4473 7.86739 28.5 8 28.5Z" fill="#005897"/>
<path d="M26.5 11C26.5 10.8674 26.4473 10.7402 26.3536 10.6464C26.2598 10.5527 26.1326 10.5 26 10.5H17C16.8674 10.5 16.7402 10.5527 16.6464 10.6464C16.5527 10.7402 16.5 10.8674 16.5 11V14C16.5 14.1326 16.5527 14.2598 16.6464 14.3536C16.7402 14.4473 16.8674 14.5 17 14.5H22C22.1326 14.5 22.2598 14.4473 22.3536 14.3536C22.4473 14.2598 22.5 14.1326 22.5 14C22.5 13.8674 22.4473 13.7402 22.3536 13.6464C22.2598 13.5527 22.1326 13.5 22 13.5H17.5V11.5H25.5V13.5H24C23.8674 13.5 23.7402 13.5527 23.6464 13.6464C23.5527 13.7402 23.5 13.8674 23.5 14C23.5 14.1326 23.5527 14.2598 23.6464 14.3536C23.7402 14.4473 23.8674 14.5 24 14.5H26C26.1326 14.5 26.2598 14.4473 26.3536 14.3536C26.4473 14.2598 26.5 14.1326 26.5 14V11Z" fill="#005897"/>
<path d="M15.5 17.5C15.5 17.7967 15.588 18.0867 15.7528 18.3334C15.9176 18.58 16.1519 18.7723 16.426 18.8858C16.7001 18.9993 17.0017 19.0291 17.2926 18.9712C17.5836 18.9133 17.8509 18.7704 18.0607 18.5607C18.2704 18.3509 18.4133 18.0836 18.4712 17.7926C18.5291 17.5017 18.4993 17.2001 18.3858 16.926C18.2723 16.6519 18.08 16.4176 17.8334 16.2528C17.5867 16.088 17.2967 16 17 16C16.6022 16 16.2206 16.158 15.9393 16.4393C15.658 16.7206 15.5 17.1022 15.5 17.5ZM17 17C17.0989 17 17.1956 17.0293 17.2778 17.0843C17.36 17.1392 17.4241 17.2173 17.4619 17.3087C17.4998 17.4 17.5097 17.5006 17.4904 17.5975C17.4711 17.6945 17.4235 17.7836 17.3536 17.8536C17.2836 17.9235 17.1945 17.9711 17.0975 17.9904C17.0006 18.0097 16.9 17.9998 16.8087 17.9619C16.7173 17.9241 16.6392 17.86 16.5843 17.7778C16.5293 17.6956 16.5 17.5989 16.5 17.5C16.5 17.3674 16.5527 17.2402 16.6464 17.1464C16.7402 17.0527 16.8674 17 17 17Z" fill="#005897"/>
<path d="M21 16C20.7033 16 20.4133 16.088 20.1666 16.2528C19.92 16.4176 19.7277 16.6519 19.6142 16.926C19.5007 17.2001 19.4709 17.5017 19.5288 17.7926C19.5867 18.0836 19.7296 18.3509 19.9393 18.5607C20.1491 18.7704 20.4164 18.9133 20.7074 18.9712C20.9983 19.0291 21.2999 18.9993 21.574 18.8858C21.8481 18.7723 22.0824 18.58 22.2472 18.3334C22.412 18.0867 22.5 17.7967 22.5 17.5C22.5 17.1022 22.342 16.7206 22.0607 16.4393C21.7794 16.158 21.3978 16 21 16ZM21 18C20.9011 18 20.8044 17.9707 20.7222 17.9157C20.64 17.8608 20.5759 17.7827 20.5381 17.6913C20.5002 17.6 20.4903 17.4994 20.5096 17.4025C20.5289 17.3055 20.5765 17.2164 20.6464 17.1464C20.7164 17.0765 20.8055 17.0289 20.9025 17.0096C20.9994 16.9903 21.1 17.0002 21.1913 17.0381C21.2827 17.0759 21.3608 17.14 21.4157 17.2222C21.4707 17.3044 21.5 17.4011 21.5 17.5C21.5 17.6326 21.4473 17.7598 21.3536 17.8536C21.2598 17.9473 21.1326 18 21 18Z" fill="#005897"/>
<path d="M25 16C24.7033 16 24.4133 16.088 24.1666 16.2528C23.92 16.4176 23.7277 16.6519 23.6142 16.926C23.5007 17.2001 23.4709 17.5017 23.5288 17.7926C23.5867 18.0836 23.7296 18.3509 23.9393 18.5607C24.1491 18.7704 24.4164 18.9133 24.7074 18.9712C24.9983 19.0291 25.2999 18.9993 25.574 18.8858C25.8481 18.7723 26.0824 18.58 26.2472 18.3334C26.412 18.0867 26.5 17.7967 26.5 17.5C26.5 17.1022 26.342 16.7206 26.0607 16.4393C25.7794 16.158 25.3978 16 25 16ZM25 18C24.9011 18 24.8044 17.9707 24.7222 17.9157C24.64 17.8608 24.5759 17.7827 24.5381 17.6913C24.5002 17.6 24.4903 17.4994 24.5096 17.4025C24.5289 17.3055 24.5765 17.2164 24.6464 17.1464C24.7164 17.0765 24.8055 17.0289 24.9025 17.0096C24.9994 16.9903 25.1 17.0002 25.1913 17.0381C25.2827 17.0759 25.3608 17.14 25.4157 17.2222C25.4707 17.3044 25.5 17.4011 25.5 17.5C25.5 17.6326 25.4473 17.7598 25.3536 17.8536C25.2598 17.9473 25.1326 18 25 18Z" fill="#005897"/>
<path d="M17 20C16.7033 20 16.4133 20.088 16.1666 20.2528C15.92 20.4176 15.7277 20.6519 15.6142 20.926C15.5006 21.2001 15.4709 21.5017 15.5288 21.7926C15.5867 22.0836 15.7296 22.3509 15.9393 22.5607C16.1491 22.7704 16.4164 22.9133 16.7074 22.9712C16.9983 23.0291 17.2999 22.9993 17.574 22.8858C17.8481 22.7723 18.0824 22.58 18.2472 22.3334C18.412 22.0867 18.5 21.7967 18.5 21.5C18.5 21.1022 18.342 20.7206 18.0607 20.4393C17.7794 20.158 17.3978 20 17 20ZM17 22C16.9011 22 16.8044 21.9707 16.7222 21.9157C16.64 21.8608 16.5759 21.7827 16.5381 21.6913C16.5002 21.6 16.4903 21.4994 16.5096 21.4025C16.5289 21.3055 16.5765 21.2164 16.6464 21.1464C16.7164 21.0765 16.8055 21.0289 16.9025 21.0096C16.9994 20.9903 17.1 21.0002 17.1913 21.0381C17.2827 21.0759 17.3608 21.14 17.4157 21.2222C17.4707 21.3044 17.5 21.4011 17.5 21.5C17.5 21.6326 17.4473 21.7598 17.3536 21.8536C17.2598 21.9473 17.1326 22 17 22Z" fill="#005897"/>
<path d="M21 20C20.7033 20 20.4133 20.088 20.1666 20.2528C19.92 20.4176 19.7277 20.6519 19.6142 20.926C19.5007 21.2001 19.4709 21.5017 19.5288 21.7926C19.5867 22.0836 19.7296 22.3509 19.9393 22.5607C20.1491 22.7704 20.4164 22.9133 20.7074 22.9712C20.9983 23.0291 21.2999 22.9993 21.574 22.8858C21.8481 22.7723 22.0824 22.58 22.2472 22.3334C22.412 22.0867 22.5 21.7967 22.5 21.5C22.5 21.1022 22.342 20.7206 22.0607 20.4393C21.7794 20.158 21.3978 20 21 20ZM21 22C20.9011 22 20.8044 21.9707 20.7222 21.9157C20.64 21.8608 20.5759 21.7827 20.5381 21.6913C20.5002 21.6 20.4903 21.4994 20.5096 21.4025C20.5289 21.3055 20.5765 21.2164 20.6464 21.1464C20.7164 21.0765 20.8055 21.0289 20.9025 21.0096C20.9994 20.9903 21.1 21.0002 21.1913 21.0381C21.2827 21.0759 21.3608 21.14 21.4157 21.2222C21.4707 21.3044 21.5 21.4011 21.5 21.5C21.5 21.6326 21.4473 21.7598 21.3536 21.8536C21.2598 21.9473 21.1326 22 21 22Z" fill="#005897"/>
<path d="M25 20C24.7033 20 24.4133 20.088 24.1666 20.2528C23.92 20.4176 23.7277 20.6519 23.6142 20.926C23.5007 21.2001 23.4709 21.5017 23.5288 21.7926C23.5867 22.0836 23.7296 22.3509 23.9393 22.5607C24.1491 22.7704 24.4164 22.9133 24.7074 22.9712C24.9983 23.0291 25.2999 22.9993 25.574 22.8858C25.8481 22.7723 26.0824 22.58 26.2472 22.3334C26.412 22.0867 26.5 21.7967 26.5 21.5C26.5 21.1022 26.342 20.7206 26.0607 20.4393C25.7794 20.158 25.3978 20 25 20ZM25 22C24.9011 22 24.8044 21.9707 24.7222 21.9157C24.64 21.8608 24.5759 21.7827 24.5381 21.6913C24.5002 21.6 24.4903 21.4994 24.5096 21.4025C24.5289 21.3055 24.5765 21.2164 24.6464 21.1464C24.7164 21.0765 24.8055 21.0289 24.9025 21.0096C24.9994 20.9903 25.1 21.0002 25.1913 21.0381C25.2827 21.0759 25.3608 21.14 25.4157 21.2222C25.4707 21.3044 25.5 21.4011 25.5 21.5C25.5 21.6326 25.4473 21.7598 25.3536 21.8536C25.2598 21.9473 25.1326 22 25 22Z" fill="#005897"/>
<path d="M18.5 25.5C18.5 25.2033 18.412 24.9133 18.2472 24.6666C18.0824 24.42 17.8481 24.2277 17.574 24.1142C17.2999 24.0007 16.9983 23.9709 16.7074 24.0288C16.4164 24.0867 16.1491 24.2296 15.9393 24.4393C15.7296 24.6491 15.5867 24.9164 15.5288 25.2074C15.4709 25.4983 15.5006 25.7999 15.6142 26.074C15.7277 26.3481 15.92 26.5824 16.1666 26.7472C16.4133 26.912 16.7033 27 17 27C17.1326 27 17.2598 26.9473 17.3536 26.8536C17.4473 26.7598 17.5 26.6326 17.5 26.5C17.5 26.3674 17.4473 26.2402 17.3536 26.1464C17.2598 26.0527 17.1326 26 17 26C16.9011 26 16.8044 25.9707 16.7222 25.9157C16.64 25.8608 16.5759 25.7827 16.5381 25.6913C16.5002 25.6 16.4903 25.4994 16.5096 25.4025C16.5289 25.3055 16.5765 25.2164 16.6464 25.1464C16.7164 25.0765 16.8055 25.0289 16.9025 25.0096C16.9994 24.9903 17.1 25.0002 17.1913 25.0381C17.2827 25.0759 17.3608 25.14 17.4157 25.2222C17.4707 25.3044 17.5 25.4011 17.5 25.5C17.5 25.6326 17.5527 25.7598 17.6464 25.8536C17.7402 25.9473 17.8674 26 18 26C18.1326 26 18.2598 25.9473 18.3536 25.8536C18.4473 25.7598 18.5 25.6326 18.5 25.5Z" fill="#005897"/>
<path d="M22.5 25.5C22.5 25.2033 22.412 24.9133 22.2472 24.6666C22.0824 24.42 21.8481 24.2277 21.574 24.1142C21.2999 24.0007 20.9983 23.9709 20.7074 24.0288C20.4164 24.0867 20.1491 24.2296 19.9393 24.4393C19.7296 24.6491 19.5867 24.9164 19.5288 25.2074C19.4709 25.4983 19.5007 25.7999 19.6142 26.074C19.7277 26.3481 19.92 26.5824 20.1666 26.7472C20.4133 26.912 20.7033 27 21 27C21.3978 27 21.7794 26.842 22.0607 26.5607C22.342 26.2794 22.5 25.8978 22.5 25.5ZM21 26C20.9011 26 20.8044 25.9707 20.7222 25.9157C20.64 25.8608 20.5759 25.7827 20.5381 25.6913C20.5002 25.6 20.4903 25.4994 20.5096 25.4025C20.5289 25.3055 20.5765 25.2164 20.6464 25.1464C20.7164 25.0765 20.8055 25.0289 20.9025 25.0096C20.9994 24.9903 21.1 25.0002 21.1913 25.0381C21.2827 25.0759 21.3608 25.14 21.4157 25.2222C21.4707 25.3044 21.5 25.4011 21.5 25.5C21.5 25.6326 21.4473 25.7598 21.3536 25.8536C21.2598 25.9473 21.1326 26 21 26Z" fill="#005897"/>
<path d="M26.5 25.5C26.5 25.2033 26.412 24.9133 26.2472 24.6666C26.0824 24.42 25.8481 24.2277 25.574 24.1142C25.2999 24.0007 24.9983 23.9709 24.7074 24.0288C24.4164 24.0867 24.1491 24.2296 23.9393 24.4393C23.7296 24.6491 23.5867 24.9164 23.5288 25.2074C23.4709 25.4983 23.5007 25.7999 23.6142 26.074C23.7277 26.3481 23.92 26.5824 24.1666 26.7472C24.4133 26.912 24.7033 27 25 27C25.3978 27 25.7794 26.842 26.0607 26.5607C26.342 26.2794 26.5 25.8978 26.5 25.5ZM25 26C24.9011 26 24.8044 25.9707 24.7222 25.9157C24.64 25.8608 24.5759 25.7827 24.5381 25.6913C24.5002 25.6 24.4903 25.4994 24.5096 25.4025C24.5289 25.3055 24.5765 25.2164 24.6464 25.1464C24.7164 25.0765 24.8055 25.0289 24.9025 25.0096C24.9994 24.9903 25.1 25.0002 25.1913 25.0381C25.2827 25.0759 25.3608 25.14 25.4157 25.2222C25.4707 25.3044 25.5 25.4011 25.5 25.5C25.5 25.6326 25.4473 25.7598 25.3536 25.8536C25.2598 25.9473 25.1326 26 25 26Z" fill="#005897"/>
<path d="M28 18C28.2761 18 28.5 17.7761 28.5 17.5C28.5 17.2239 28.2761 17 28 17C27.7239 17 27.5 17.2239 27.5 17.5C27.5 17.7761 27.7239 18 28 18Z" fill="#005897"/>
<path d="M28 12C28.2761 12 28.5 11.7761 28.5 11.5C28.5 11.2239 28.2761 11 28 11C27.7239 11 27.5 11.2239 27.5 11.5C27.5 11.7761 27.7239 12 28 12Z" fill="#005897"/>
<path d="M28 20C28.2761 20 28.5 19.7761 28.5 19.5C28.5 19.2239 28.2761 19 28 19C27.7239 19 27.5 19.2239 27.5 19.5C27.5 19.7761 27.7239 20 28 20Z" fill="#005897"/>
<path d="M28 22C28.2761 22 28.5 21.7761 28.5 21.5C28.5 21.2239 28.2761 21 28 21C27.7239 21 27.5 21.2239 27.5 21.5C27.5 21.7761 27.7239 22 28 22Z" fill="#005897"/>
<path d="M28 14C28.2761 14 28.5 13.7761 28.5 13.5C28.5 13.2239 28.2761 13 28 13C27.7239 13 27.5 13.2239 27.5 13.5C27.5 13.7761 27.7239 14 28 14Z" fill="#005897"/>
<path d="M15 12C15.2761 12 15.5 11.7761 15.5 11.5C15.5 11.2239 15.2761 11 15 11C14.7239 11 14.5 11.2239 14.5 11.5C14.5 11.7761 14.7239 12 15 12Z" fill="#005897"/>
<path d="M15 14C15.2761 14 15.5 13.7761 15.5 13.5C15.5 13.2239 15.2761 13 15 13C14.7239 13 14.5 13.2239 14.5 13.5C14.5 13.7761 14.7239 14 15 14Z" fill="#005897"/>
<path d="M16.5 28C16.3674 28 16.2402 28.0527 16.1464 28.1464C16.0527 28.2402 16 28.3674 16 28.5C16 28.6326 16.0527 28.7598 16.1464 28.8536C16.2402 28.9473 16.3674 29 16.5 29H17.5C17.6326 29 17.7598 28.9473 17.8536 28.8536C17.9473 28.7598 18 28.6326 18 28.5C18 28.3674 17.9473 28.2402 17.8536 28.1464C17.7598 28.0527 17.6326 28 17.5 28H16.5Z" fill="#005897"/>
<path d="M20.5 28C20.3674 28 20.2402 28.0527 20.1464 28.1464C20.0527 28.2402 20 28.3674 20 28.5C20 28.6326 20.0527 28.7598 20.1464 28.8536C20.2402 28.9473 20.3674 29 20.5 29H21.5C21.6326 29 21.7598 28.9473 21.8536 28.8536C21.9473 28.7598 22 28.6326 22 28.5C22 28.3674 21.9473 28.2402 21.8536 28.1464C21.7598 28.0527 21.6326 28 21.5 28H20.5Z" fill="#005897"/>
<path d="M24.5 28C24.3674 28 24.2402 28.0527 24.1464 28.1464C24.0527 28.2402 24 28.3674 24 28.5C24 28.6326 24.0527 28.7598 24.1464 28.8536C24.2402 28.9473 24.3674 29 24.5 29H25.5C25.6326 29 25.7598 28.9473 25.8536 28.8536C25.9473 28.7598 26 28.6326 26 28.5C26 28.3674 25.9473 28.2402 25.8536 28.1464C25.7598 28.0527 25.6326 28 25.5 28H24.5Z" fill="#005897"/>
<path d="M7 7.5H10C10.1326 7.5 10.2598 7.44732 10.3536 7.35355C10.4473 7.25979 10.5 7.13261 10.5 7C10.5 6.86739 10.4473 6.74021 10.3536 6.64645C10.2598 6.55268 10.1326 6.5 10 6.5H7C6.86739 6.5 6.74021 6.55268 6.64645 6.64645C6.55268 6.74021 6.5 6.86739 6.5 7C6.5 7.13261 6.55268 7.25979 6.64645 7.35355C6.74021 7.44732 6.86739 7.5 7 7.5Z" fill="#005897"/>
<path d="M7 9.5H10C10.1326 9.5 10.2598 9.44732 10.3536 9.35355C10.4473 9.25979 10.5 9.13261 10.5 9C10.5 8.86739 10.4473 8.74021 10.3536 8.64645C10.2598 8.55268 10.1326 8.5 10 8.5H7C6.86739 8.5 6.74021 8.55268 6.64645 8.64645C6.55268 8.74021 6.5 8.86739 6.5 9C6.5 9.13261 6.55268 9.25979 6.64645 9.35355C6.74021 9.44732 6.86739 9.5 7 9.5Z" fill="#005897"/>
<path d="M7 24.5H10C10.1326 24.5 10.2598 24.4473 10.3536 24.3536C10.4473 24.2598 10.5 24.1326 10.5 24C10.5 23.8674 10.4473 23.7402 10.3536 23.6464C10.2598 23.5527 10.1326 23.5 10 23.5H7C6.86739 23.5 6.74021 23.5527 6.64645 23.6464C6.55268 23.7402 6.5 23.8674 6.5 24C6.5 24.1326 6.55268 24.2598 6.64645 24.3536C6.74021 24.4473 6.86739 24.5 7 24.5Z" fill="#005897"/>
<path d="M7 26.5H10C10.1326 26.5 10.2598 26.4473 10.3536 26.3536C10.4473 26.2598 10.5 26.1326 10.5 26C10.5 25.8674 10.4473 25.7402 10.3536 25.6464C10.2598 25.5527 10.1326 25.5 10 25.5H7C6.86739 25.5 6.74021 25.5527 6.64645 25.6464C6.55268 25.7402 6.5 25.8674 6.5 26C6.5 26.1326 6.55268 26.2598 6.64645 26.3536C6.74021 26.4473 6.86739 26.5 7 26.5Z" fill="#005897"/>
</svg>
