<svg width="74" height="74" viewBox="0 0 74 74" fill="none" xmlns="http://www.w3.org/2000/svg">
<path d="M36.271 55.3222C35.6804 55.1997 32.9105 55.6768 30.2708 54.2542C29.7434 53.9699 29.086 54.1671 28.8019 54.6941C28.5179 55.2212 28.7149 55.8787 29.2418 56.163C29.4667 56.2841 29.6922 56.3942 29.9181 56.4944C27.7062 57.4659 25.9192 59.2197 24.8753 61.8118C23.8848 59.3869 22.1873 57.5432 19.8303 56.4915C22.2341 55.4188 23.9065 53.5428 24.8753 51.1716C25.0828 51.6838 25.2722 52.0396 25.2794 52.0544C25.5514 52.5876 26.2047 52.7992 26.738 52.5271C27.2713 52.255 27.4829 51.602 27.2107 51.0685C27.2076 51.0541 25.8951 48.6586 26.0502 45.4704C26.1388 44.8728 25.7199 44.2788 25.0812 44.1612C24.4999 44.0468 23.8559 44.4155 23.7062 45.0685C23.6287 45.4068 24.1895 51.2613 19.9408 53.9777C17.1749 55.7421 14.0348 55.1938 13.4498 55.3264C12.213 55.608 12.214 57.3753 13.4498 57.6567C14.0276 57.7869 17.2293 57.24 19.996 59.041C24.1048 61.718 23.6514 67.417 23.6788 67.6723C23.6788 69.0091 25.5891 69.31 26.0107 68.0057C26.1534 67.5616 25.5534 61.9094 29.6103 59.1315C32.2831 57.3 35.5954 57.7417 36.1718 57.6768C37.4908 57.5287 37.6088 55.6052 36.271 55.3222Z" fill="white"/>
<path d="M72.8387 34.1713C70.8567 33.9511 56.7286 35.9357 50.5541 22.9718C47.3082 16.1528 48.1407 9.97109 47.9638 9.19553C47.8046 8.49831 47.1454 8.08062 46.5151 8.16112C45.7963 8.24249 45.3195 8.83767 45.3195 9.4369V12.2501C44.8297 21.9209 40.4287 30.1534 31.1871 33.0511C25.8503 34.7252 21.2172 34.0022 20.3522 34.1913C18.9649 34.5061 18.9545 36.4985 20.3669 36.8123C21.5763 37.0675 30.6757 35.5933 37.742 41.4617C38.2028 41.8441 38.8863 41.7807 39.2688 41.3204C39.6513 40.8596 39.5881 40.1762 39.1275 39.7935C36.7028 37.7799 33.7967 36.341 30.4714 35.505C39.2261 33.2999 44.5996 27.0506 46.6564 18.297C48.696 26.997 54.0252 33.3016 62.874 35.4957C54.1135 37.6878 48.6657 43.9319 46.6438 52.6616C45.8911 49.4619 44.6354 46.3995 42.7479 43.7251C42.4026 43.2358 41.7262 43.1192 41.2369 43.4643C40.7475 43.8096 40.631 44.486 40.9762 44.9753C41.6416 45.9179 42.2404 46.9451 42.7567 48.0283C45.8191 54.4623 45.278 61.0081 45.3224 61.6396C45.4367 63.2525 48.0683 63.3338 47.9859 61.3394C47.8372 57.7446 48.116 45.5668 57.9522 39.7882C64.5895 35.8928 71.9731 37.0307 72.9586 36.809C74.4441 36.4718 74.2834 34.3334 72.8387 34.1713Z" fill="white"/>
<path d="M23.7477 16.3381C23.0136 16.1859 17.2263 17.2105 14.6409 11.9947C13.4255 9.54775 13.5099 6.8271 13.5265 6.486C13.6135 5.89559 13.2037 5.29535 12.5566 5.17727C11.9789 5.06295 11.3318 5.42948 11.1822 6.08637C11.1051 6.42313 11.6654 12.2777 7.4172 14.994C4.74829 16.6966 1.63335 16.2568 1.04627 16.3222C-0.272871 16.4722 -0.379535 18.3756 0.926016 18.6729C1.55646 18.8148 4.69033 18.2462 7.47227 20.0572C10.4372 21.9887 11.0533 25.5361 11.1552 27.4975C11.1692 28.6185 11.1197 28.7489 11.2077 29.022C11.3697 29.5234 11.8277 29.86 12.3472 29.86C12.9435 29.8603 13.4267 29.4194 13.5224 28.879C13.5885 28.5084 13.2992 25.6894 14.6722 22.9611C14.9414 22.4262 14.726 21.7745 14.1912 21.5053C13.6563 21.2359 13.0046 21.4515 12.7354 21.9863C12.5984 22.2587 12.471 22.5413 12.3535 22.8326C11.3636 20.4061 9.66597 18.561 7.30693 17.508C9.71063 16.4348 11.3829 14.5592 12.3516 12.1879C13.3199 14.5766 14.9786 16.4441 17.3926 17.5117C17.156 17.6162 16.9194 17.7314 16.6846 17.8583C16.1577 18.1432 15.9619 18.8009 16.2469 19.3278C16.5318 19.8544 17.1894 20.0503 17.7164 19.7655C20.2751 18.3812 23.0707 18.7577 23.6484 18.6934C24.9744 18.5414 25.075 16.6189 23.7477 16.3381Z" fill="white"/>
</svg>
